<svg width="28" height="31" viewBox="0 0 28 31" fill="none" xmlns="http://www.w3.org/2000/svg">
<path d="M9.84263 18.4014C10.8851 18.4014 11.7304 19.2398 11.7304 20.2739V28.3065C11.7304 29.3407 10.8851 30.1789 9.84263 30.1789C8.80024 30.1789 7.95508 29.3407 7.95508 28.3065V20.2739C7.95508 19.2399 8.80024 18.4014 9.84263 18.4014Z" fill="white"/>
<path d="M5.53118 8.74316C5.52493 8.8142 5.51953 8.88597 5.51953 8.95857V21.1287C5.51953 22.4376 6.56392 23.4919 7.8604 23.4919H20.3368C21.6335 23.4919 22.6778 22.4374 22.6778 21.1287V8.95857C22.6778 8.88597 22.6752 8.81396 22.6691 8.74316H5.53118Z" fill="white"/>
<path fill-rule="evenodd" clip-rule="evenodd" d="M6.14435 0.205175C6.23945 0.150695 6.36104 0.183035 6.41595 0.277355L8.40715 3.69869C8.46205 3.79301 8.42947 3.91367 8.33437 3.96809C8.23927 4.02257 8.11765 3.99029 8.06275 3.89591L6.0716 0.474636C6.0167 0.380256 6.04925 0.259595 6.14435 0.205175ZM22.055 0.205175C22.1501 0.259595 22.1827 0.380256 22.1278 0.474636L20.1365 3.89591C20.0816 3.99029 19.96 4.02257 19.8649 3.96809C19.7698 3.91367 19.7372 3.79301 19.7921 3.69869L21.7835 0.277355C21.8384 0.183035 21.9599 0.150695 22.055 0.205175Z" fill="white"/>
<path fill-rule="evenodd" clip-rule="evenodd" d="M20.2452 20.2728C20.2452 19.2387 19.4001 18.4003 18.3575 18.4003C17.3151 18.4003 16.47 19.2388 16.47 20.2728V28.3055C16.47 29.3396 17.3151 30.1778 18.3575 30.1778C19.4001 30.1778 20.2452 29.3396 20.2452 28.3055V20.2728ZM4.37486 11.6985C4.37486 10.6643 3.52967 9.82594 2.48729 9.82594C1.44465 9.82594 0.599459 10.6644 0.599609 11.6986V19.7312C0.599609 20.7652 1.44475 21.6036 2.48729 21.6036C3.52967 21.6036 4.37486 20.7652 4.37486 19.7311V11.6985ZM27.5993 11.6985C27.5993 10.6643 26.7541 9.82594 25.7117 9.82594C24.6692 9.82594 23.824 10.6644 23.824 11.6986V19.7312C23.824 20.7652 24.6692 21.6036 25.7117 21.6036C26.7541 21.6036 27.5993 20.7652 27.5993 19.7311V11.6985ZM13.1508 0.736328C8.92872 1.14025 5.63954 4.20524 5.58704 7.94344H22.6116C22.5591 4.20548 19.2702 1.14037 15.0479 0.736328H13.1508ZM10.5897 5.54211C11.1292 5.54067 11.5652 5.1158 11.5636 4.59332V4.58798C11.562 4.0652 11.1235 3.64304 10.5843 3.64448C10.045 3.64592 9.60894 4.0706 9.61038 4.59332V4.59854C9.61201 5.12109 10.0505 5.54343 10.5897 5.54211ZM17.8796 5.54211C18.4191 5.54067 18.855 5.1158 18.8534 4.59332V4.58798C18.8519 4.0652 18.4134 3.64304 17.8742 3.64448C17.3348 3.64592 16.8988 4.0706 16.9003 4.59332V4.59854C16.9019 5.12109 17.3403 5.54343 17.8796 5.54211Z" fill="white"/>
</svg>
