<svg width="65" height="21" viewBox="0 0 65 21" fill="none" xmlns="http://www.w3.org/2000/svg">
<path d="M16.7763 0.5H19.7116V20.5H16.7763V0.5ZM29.9853 14.12C29.9853 17.1808 27.6245 17.4248 26.9222 17.4248C25.1677 17.4248 24.8484 15.6344 24.8484 14.5544V6.9H21.9131V14.5384C21.9131 16.4344 22.4591 17.9992 23.416 19.0424C24.2614 19.9648 25.528 20.4688 26.9002 20.4688C27.8733 20.4688 29.2514 20.1384 29.9853 19.408V20.5H32.9206V6.9H29.9853V14.12ZM38.7913 2.1H35.8559V6.9H33.6544V10.1H35.8559V20.5H38.7913V10.1H40.9928V6.9H38.7913V2.1ZM50.2368 16.4336C49.5977 17.06 48.7538 17.4072 47.8277 17.4072C45.7862 17.4072 44.2869 15.7728 44.2869 13.5288C44.2869 11.2848 45.7385 9.7192 47.8277 9.7192C48.7376 9.7192 49.5977 10.0496 50.253 10.676L50.6984 11.0936L52.6776 8.9368L52.1822 8.4496C51.0176 7.3032 49.4715 6.66 47.8269 6.66C44.1578 6.66 41.4932 9.5464 41.4932 13.512C41.4932 17.4608 44.2216 20.4504 47.8269 20.4504C49.5023 20.4504 51.0646 19.8072 52.2145 18.6424L52.693 18.1552L50.683 16L50.2368 16.4336ZM63.1545 8.0856C62.3091 7.164 61.3185 6.66 59.9462 6.66C58.9731 6.66 57.8709 6.9904 57.1371 7.72V0.5H54.2017V20.5H57.1371V13.008C57.1371 9.9472 59.1316 9.704 59.8339 9.704C61.5885 9.704 61.5401 11.4952 61.5401 12.5736V20.5H64.4754V12.5904C64.4754 10.6944 64.1122 9.1296 63.1545 8.0856Z" fill="white"/>
<path d="M47.7303 11.2495C48.2931 11.2495 48.8329 11.4933 49.2309 11.9272C49.6289 12.361 49.8525 12.9495 49.8525 13.5631C49.8525 14.1767 49.6289 14.7652 49.2309 15.1991C48.8329 15.633 48.2931 15.8767 47.7303 15.8767C47.1674 15.8767 46.6276 15.633 46.2296 15.1991C45.8316 14.7652 45.608 14.1767 45.608 13.5631C45.608 12.9495 45.8316 12.361 46.2296 11.9272C46.6276 11.4933 47.1674 11.2495 47.7303 11.2495Z" fill="white"/>
<path d="M12.6667 15.4777C11.5505 16.7297 10.0344 17.4081 8.43908 17.4081C5.16912 17.4081 2.7915 14.6081 2.7915 10.7649C2.7915 6.90405 5.16912 4.10405 8.43908 4.10405C10.019 4.10405 11.5182 4.78165 12.6513 6.01685L13.0974 6.50405L15.0597 4.36485L14.629 3.87765C13.002 2.05125 10.8005 1.06085 8.43908 1.06085C3.62146 1.06085 0 5.23445 0 10.7817C0 16.3121 3.63761 20.4689 8.43908 20.4689C10.8167 20.4689 13.0182 19.4609 14.6451 17.6345L15.0759 17.1473L13.1297 14.9737L12.6667 15.4777Z" fill="white"/>
</svg>
