<svg width="131" height="21" viewBox="0 0 131 21" fill="none" xmlns="http://www.w3.org/2000/svg">
<path d="M17.3762 4.72412H21.9743C25.6752 4.72412 28.2546 7.21938 28.2546 10.4355V10.491C28.2546 13.7071 25.7312 16.2023 21.9743 16.2023H17.3762V4.72412ZM21.9743 13.8734C24.1051 13.8734 25.5069 12.4872 25.5069 10.491V10.4355C25.5069 8.43929 24.1051 6.99758 21.9743 6.99758H20.0117V13.8734H21.9743Z" fill="white"/>
<path d="M30.4971 4.72412H39.4128V6.94213H33.1326V9.27105H38.6839V11.4891H33.1326V13.8734H39.525V16.0914H30.5531L30.4971 4.72412Z" fill="white"/>
<path d="M40.9814 14.4803L42.5515 12.7059C43.6169 13.5376 44.7384 14.0921 46.0842 14.0921C47.1496 14.0921 47.7664 13.6485 47.7664 13.0386V12.9831C47.7664 12.3177 47.3178 11.985 45.4113 11.5414C43.0562 10.9315 41.4861 10.3215 41.4861 8.04806V7.99261C41.4861 5.94095 43.1683 4.55469 45.6356 4.55469C47.3178 4.55469 48.8318 5.05374 50.0094 5.9964L48.6636 7.93716C47.6542 7.2163 46.5888 6.82815 45.5795 6.82815C44.5702 6.82815 44.0655 7.27175 44.0655 7.82626V7.77081C44.0655 8.49166 44.5702 8.76891 46.5888 9.26796C49 9.87792 50.2897 10.7097 50.2897 12.6504V12.7059C50.2897 14.9793 48.4954 16.2547 45.972 16.2547C44.1777 16.2547 42.3833 15.6447 40.9814 14.4803Z" fill="white"/>
<path d="M52.6455 4.72412H55.2249V16.1469H52.6455V4.72412Z" fill="white"/>
<path d="M57.6919 10.4332C57.6919 7.16161 60.2713 4.5 63.86 4.5C65.9908 4.5 67.2245 5.0545 68.4581 6.10806L66.832 8.04882C65.9348 7.32797 65.1497 6.88436 63.7479 6.88436C61.8414 6.88436 60.3834 8.49242 60.3834 10.4332V10.4886C60.3834 12.5957 61.8414 14.1484 63.9722 14.1484C64.9254 14.1484 65.7666 13.9266 66.4394 13.4275V11.8194H63.804V9.65688H68.9067V14.592C67.6731 15.5901 66.0469 16.4218 63.86 16.4218C60.1592 16.2555 57.6919 13.8156 57.6919 10.4332Z" fill="white"/>
<path d="M71.374 4.72412H73.7852L79.2804 11.7109V4.72412H81.8038V16.1469H79.6169L73.8974 8.88289V16.1469H71.374V4.72412Z" fill="white"/>
<path d="M84.6673 4.71875H90.0504C91.5644 4.71875 92.6859 5.16235 93.4709 5.88321C94.1438 6.54861 94.4803 7.43581 94.4803 8.48937V8.54482C94.4803 10.3747 93.4709 11.5391 91.9569 12.0936L94.8167 16.1415H91.7887L89.2654 12.4818H89.2093H87.1907V16.1415H84.5552V4.71875H84.6673ZM89.8822 10.2083C91.1719 10.2083 91.8448 9.54293 91.8448 8.60027V8.54482C91.8448 7.49126 91.1158 6.93676 89.8261 6.93676H87.2467V10.2083H89.8822Z" fill="white"/>
<path d="M96.6685 11.2055V4.66238H99.2479V11.0946C99.2479 12.9799 100.201 13.8671 101.771 13.8671C103.341 13.8671 104.295 12.9245 104.295 11.0946V4.60693H106.874V11.0392C106.874 14.4771 104.855 16.196 101.715 16.196C98.575 16.196 96.6685 14.5325 96.6685 11.2055Z" fill="white"/>
<path d="M108.724 14.4779L110.294 12.7034C111.36 13.5352 112.481 14.0897 113.827 14.0897C114.892 14.0897 115.509 13.6461 115.509 13.0361V12.9807C115.509 12.3153 115.06 11.9826 113.154 11.539C110.799 10.929 109.229 10.3191 109.229 8.04562V7.99017C109.229 5.9385 110.911 4.55225 113.378 4.55225C115.06 4.55225 116.574 5.0513 117.752 5.99395L116.406 7.93472C115.397 7.21386 114.332 6.82571 113.322 6.82571C112.313 6.82571 111.808 7.26931 111.808 7.82381V7.76836C111.808 8.48922 112.313 8.76647 114.332 9.26552C116.743 9.87548 118.032 10.7072 118.032 12.648V12.7034C118.032 14.9769 116.238 16.2523 113.715 16.2523C111.976 16.2523 110.126 15.6423 108.724 14.4779Z" fill="white"/>
<path d="M120.274 4.71875H122.853V9.26567H127.619V4.71875H130.199V16.1415H127.619V11.5946H122.853V16.1415H120.274V4.71875Z" fill="white"/>
<path d="M6.05316 12.9814C6.01625 12.9449 6.01625 12.9814 6.05316 12.9814L5.86861 12.8719L5.8317 12.8354L1.47638 9.76953C1.47638 9.76953 1.43947 9.76953 1.43947 9.73303L1.36565 9.66003L1.32874 9.62353H1.25492L0 8.74756L2.47294 9.11255C2.58366 9.11255 2.62057 9.14905 2.7313 9.18555C2.76821 9.18555 2.84203 9.22204 2.84203 9.22204C2.95276 9.25854 2.98967 9.29504 3.06349 9.33154C3.13731 9.36804 3.17422 9.40454 3.24803 9.44104C3.28494 9.47754 3.35876 9.51404 3.35876 9.55054C3.39567 9.58703 3.43258 9.58703 3.46949 9.62353C3.54331 9.66003 3.58022 9.69653 3.58022 9.73303C3.69095 9.84253 3.76477 9.95202 3.8755 10.025L5.8317 12.7624L5.86861 12.7989L6.05316 12.9814Z" fill="white"/>
<path d="M6.05018 17.2153L5.86563 16.9233L5.82872 16.8868L0.0339355 8.74756L1.28886 9.62353L1.51031 9.76953L5.86563 12.8354H5.90254L6.05018 12.9449C6.05018 12.9449 6.08709 12.9449 6.08709 12.9814L6.27164 12.8354L12.1402 8.74756L6.23473 16.9233L6.19782 16.9598L6.05018 17.2153Z" fill="white"/>
<path d="M6.05717 11.5962L5.87262 11.3042L5.83571 11.2677L4.39624 9.29675L5.83571 9.58874H5.87262L6.05717 9.62524L6.24171 9.58874L7.64427 9.26025L6.24171 11.3042V11.3407L6.05717 11.5962Z" fill="white"/>
<path d="M12.1809 8.71338L10.3355 8.96887L9.63417 9.07837C9.08053 9.15137 8.5638 9.44336 8.23161 9.91784L6.27541 12.6918L6.2385 12.7283L6.05396 12.9838L6.27541 12.7648L6.31232 12.7283L6.05396 12.9838L11.0367 9.47986L12.1809 8.71338Z" fill="white"/>
<path d="M6.97699 2.94543C6.97699 4.55138 4.17187 5.39086 4.17187 7.10631C4.13496 7.5078 4.24569 7.90929 4.43024 8.27428C4.43024 8.27428 3.35986 7.25231 3.35986 6.15734C3.35986 5.06237 4.39333 3.41992 4.39333 3.41992C4.39333 4.1499 4.6886 4.36889 4.98388 4.40539H5.02079C5.35298 4.40539 5.53752 4.1499 5.53752 3.78491C5.53752 3.41992 5.13152 3.05493 5.13152 2.32495C5.13152 1.63147 6.01735 0.5 6.01735 0.5C6.64481 1.22998 6.97699 2.06946 6.97699 2.94543Z" fill="white"/>
<path d="M6.2023 8.78563C5.31647 8.78563 4.6521 8.09215 4.6521 7.25268V7.21618C4.6521 5.35473 7.27267 5.17224 7.27267 2.65381C7.34649 2.76331 8.04777 3.71228 8.04777 4.73425C8.04777 6.01171 6.82976 6.3402 6.82976 6.96068C6.82976 7.21618 6.94049 7.39867 7.30958 7.39867C7.34649 7.39867 7.3834 7.39867 7.42031 7.36217C8.12159 7.07018 8.60141 6.4132 8.63832 5.64672C8.63832 5.68322 9.00742 8.78563 6.2023 8.78563Z" fill="white"/>
<path d="M7.34643 7.39867C7.38334 7.39867 7.42025 7.39867 7.45716 7.36217C7.08806 7.47167 5.72241 7.80016 5.72241 6.85119C5.72241 5.68322 7.75243 5.42773 7.75243 4.44226C7.75243 3.82178 7.6048 3.20129 7.27261 2.65381C7.34643 2.76331 8.04771 3.71228 8.04771 4.73425C8.04771 6.01171 6.8297 6.3402 6.8297 6.96069C6.86661 7.21618 7.01424 7.39867 7.34643 7.39867Z" fill="white"/>
<path d="M6.23856 3.60241C6.23856 4.51488 5.05746 4.44189 4.98364 4.40539H5.09437C5.42656 4.40539 5.6111 4.1499 5.6111 3.78491C5.6111 3.41992 5.2051 3.05493 5.2051 2.32495C5.2051 1.63147 6.09093 0.5 6.09093 0.5C5.79565 0.974486 5.64801 1.48547 5.6111 1.99646C5.6111 2.83593 6.23856 2.90893 6.23856 3.60241Z" fill="white"/>
<path d="M5.49804 19.551L4.68604 19.0035H5.68259L6.01478 18.0181L6.31005 19.0035H7.30661L6.4946 19.551L6.78988 20.5L5.97787 19.916L5.12895 20.5L5.49804 19.551Z" fill="white"/>
<path d="M9.74804 19.551L8.93604 19.0035H9.93259L10.2648 18.0181L10.5601 19.0035H11.5566L10.7446 19.551L11.0399 20.5L10.2279 19.916L9.37895 20.5L9.74804 19.551Z" fill="white"/>
<path d="M1.29223 19.551L0.480225 19.0035H1.47678L1.80897 18.0181L2.10424 19.0035H3.1008L2.28879 19.551L2.58406 20.5L1.77206 19.916L0.960048 20.5L1.29223 19.551Z" fill="white"/>
</svg>
