<svg width="133" height="21" viewBox="0 0 133 21" fill="none" xmlns="http://www.w3.org/2000/svg">
<path d="M8.15733 7.51676C8.15733 7.51676 7.049 7.40503 7.049 8.38827V12.7905H14.3197V14.1089C14.3197 14.1089 14.3418 14.757 13.6547 14.757H7.049V20.4777H14.9847C14.9847 20.4777 19.7948 19.7402 19.8392 14.757V7.51676H8.15733ZM19.6175 0.5H5.29783C0.110834 1.72905 0 6.01955 0 6.01955V20.5H5.49733V7.31564C5.49733 6.19832 6.60567 5.99721 6.60567 5.99721H19.5953L19.6175 0.5ZM38.5257 16.3436C38.1488 16.5894 37.8607 16.7905 37.6612 16.9022C36.9518 17.3492 36.2868 17.6844 35.6662 17.9525C34.7573 18.3324 33.9593 18.5112 33.2278 18.5112C30.7452 18.5112 28.6837 17.7514 27.0433 16.2095C25.3808 14.6676 24.5607 12.7235 24.5607 10.3994C24.5607 8.14246 25.2922 6.19833 26.7995 4.52235C28.2847 2.86872 30.1023 2.0419 32.2303 2.0419C33.117 2.0419 34.0702 2.19832 35.0455 2.51117C36.3312 2.91341 37.3508 3.5391 38.1932 4.32123L36.7745 5.90782C36.176 5.30447 35.378 4.87989 34.4692 4.61173C33.782 4.41061 33.0283 4.29888 32.186 4.29888C30.7008 4.29888 29.4373 4.90223 28.4177 6.10894C27.4202 7.33799 26.9103 8.76816 26.9103 10.4665C26.9103 12.1425 27.4867 13.5279 28.6393 14.6229C29.792 15.7179 31.255 16.2765 33.0283 16.2765C33.7598 16.2765 34.5135 16.0307 35.2893 15.5838C35.9322 15.0922 36.2647 14.8464 36.2647 14.8464V11.3603H31.4545L32.1417 9.19274H38.5257V16.3436ZM53.0005 12.0978C53.0005 13.7737 52.402 15.2263 51.2272 16.4553C50.0523 17.6844 48.5893 18.3101 46.8382 18.3101C45.22 18.3101 43.8235 17.7067 42.6043 16.5C41.3852 15.2933 40.7867 13.8408 40.7867 12.1201C40.7867 10.4218 41.363 8.96928 42.5157 7.71788C43.6683 6.46648 45.087 5.86313 46.7273 5.86313C48.5672 5.86313 50.0523 6.46648 51.2272 7.65084C52.402 8.81285 53.0005 10.3101 53.0005 12.0978ZM50.7617 12.1425C50.7617 11.0028 50.3848 10.0419 49.6312 9.25978C48.8775 8.45531 47.9465 8.07542 46.816 8.07542C45.7742 8.07542 44.8875 8.47766 44.1338 9.30447C43.4023 10.1089 43.0255 11.0475 43.0255 12.0978C43.0255 13.1927 43.4023 14.1313 44.1338 14.9134C44.8653 15.6955 45.7963 16.0978 46.9047 16.0978C47.9465 16.0978 48.8332 15.7179 49.5868 14.9358C50.3848 14.1313 50.7617 13.1927 50.7617 12.1425ZM67.298 12.0978C67.298 13.7737 66.6995 15.2263 65.5247 16.4553C64.3498 17.6844 62.8868 18.3101 61.1357 18.3101C59.5175 18.3101 58.121 17.7067 56.9018 16.5C55.6827 15.2933 55.0842 13.8408 55.0842 12.1201C55.0842 10.4218 55.6605 8.96928 56.8132 7.71788C57.9658 6.46648 59.3845 5.86313 61.0248 5.86313C62.8647 5.86313 64.3498 6.46648 65.5247 7.65084C66.6995 8.81285 67.298 10.3101 67.298 12.0978ZM65.037 12.1425C65.037 11.0028 64.6602 10.0419 63.9065 9.25978C63.1528 8.45531 62.2218 8.07542 61.0913 8.07542C60.0495 8.07542 59.1628 8.47766 58.4092 9.30447C57.6777 10.1089 57.3008 11.0475 57.3008 12.0978C57.3008 13.1927 57.6777 14.1313 58.4092 14.9134C59.1407 15.6955 60.0717 16.0978 61.18 16.0978C62.2218 16.0978 63.1085 15.7179 63.8622 14.9358C64.6602 14.1313 65.037 13.1927 65.037 12.1425ZM80.5093 17.9749L78.4478 18.2877V16.2765L78.0045 16.7905C77.6055 17.1704 77.1622 17.4609 76.6967 17.7067C75.9873 18.0419 75.2337 18.1983 74.4578 18.1983C72.8397 18.1983 71.4653 17.595 70.357 16.4106C69.2487 15.2263 68.6723 13.7737 68.6723 12.1201C68.6723 10.3994 69.2265 8.92458 70.3348 7.71788C71.4432 6.48883 72.7732 5.88547 74.3913 5.88547C75.3223 5.88547 76.1203 6.0419 76.7853 6.3324C77.273 6.55587 77.672 6.84637 78.0267 7.20391C78.1375 7.36033 78.2483 7.51676 78.3813 7.67318V2.37709L80.5758 2.06425L80.5093 17.9749ZM78.5808 12.2542C78.5808 11.0698 78.1818 10.0642 77.3838 9.25978C76.5858 8.43296 75.677 8.03073 74.6352 8.03073C73.4825 8.03073 72.5737 8.41062 71.8643 9.19274C71.1993 9.93017 70.8668 10.8464 70.8668 11.919C70.8668 13.1257 71.2215 14.1313 71.9087 14.9134C72.5958 15.6955 73.4603 16.0754 74.5465 16.0754C75.5883 16.0754 76.5193 15.7179 77.3395 14.9805C78.1597 14.243 78.5808 13.3268 78.5808 12.2542ZM92.1247 4.56704H85.9623V8.7905H90.7503V10.9581H85.9623V17.9525L83.5683 18.3101V2.37709H91.6592L92.1247 4.56704ZM97.0678 3.33799L95.5827 5.21508L94.164 3.33799L95.6492 1.48324L97.0678 3.33799ZM96.6245 17.9749L94.43 18.2877V6.48883L96.6245 6.15363V17.9749ZM106.555 6.01955L105.513 8.43296C105.38 8.41061 105.247 8.41062 105.092 8.41062C104.871 8.41062 104.671 8.43296 104.449 8.45531C104.228 8.47765 104.006 8.56704 103.762 8.70112C103.297 8.90224 102.898 9.34916 102.565 9.99721C102.188 10.757 101.989 11.5838 101.989 12.433V17.9525L99.7943 18.3101V6.48883L101.834 6.10894V8.56704C102.1 8.14246 102.366 7.71788 102.632 7.27095C103.008 6.82402 103.452 6.51117 103.939 6.31005C104.205 6.19832 104.671 6.13129 105.402 6.06425C106.112 6.01956 106.511 5.99721 106.555 6.01955ZM122.959 17.9749L120.764 18.2877V10.1983C120.764 9.4609 120.609 8.90223 120.276 8.56704C119.944 8.23184 119.456 8.05307 118.813 8.05307C118.037 8.05307 117.461 8.36592 117.062 9.01397C116.796 9.46089 116.641 9.93017 116.641 10.3994V17.9302L114.446 18.3324V10.2207C114.446 9.50558 114.291 8.96927 113.959 8.58939C113.626 8.2095 113.205 8.03073 112.651 8.03073H112.429C111.654 8.03073 111.099 8.34357 110.745 9.01397C110.479 9.50559 110.346 10.1313 110.346 10.8911V17.9078L108.062 18.3101V6.44413L110.124 6.08659V7.60615C110.346 7.24861 110.59 6.9581 110.789 6.75698C111.388 6.19832 112.075 5.93017 112.85 5.93017C113.715 5.93017 114.358 6.06425 114.801 6.35475C115.178 6.60056 115.533 7.06984 115.909 7.74023C116.663 6.53352 117.727 5.93017 119.146 5.93017C120.498 5.93017 121.495 6.35475 122.16 7.22626C122.692 7.94134 122.959 8.99162 122.959 10.3547V17.9749ZM133 14.3994C133 15.4944 132.623 16.3883 131.869 17.081C131.116 17.7961 130.163 18.1313 129.01 18.1313C128.145 18.1313 127.37 17.9302 126.66 17.5279C125.951 17.1257 125.419 16.6564 125.086 16.1201L126.638 14.7346C126.749 14.9134 126.86 15.0475 126.949 15.1369C127.525 15.7402 128.212 16.0307 129.01 16.0307C129.564 16.0307 130.007 15.8743 130.318 15.5838C130.65 15.2933 130.805 14.8911 130.805 14.3547C130.805 13.7514 130.429 13.3492 129.675 13.1257C128.19 12.6788 127.37 12.4106 127.259 12.3659C126.572 12.0084 126.084 11.6285 125.774 11.2039C125.419 10.7123 125.242 10.0642 125.242 9.23743C125.242 8.2095 125.618 7.38268 126.35 6.68994C127.081 6.01955 127.968 5.68436 128.988 5.68436C129.764 5.68436 130.473 5.86313 131.138 6.22067C131.803 6.57821 132.268 6.9581 132.557 7.38268L131.249 8.81285C131.049 8.61173 130.828 8.43296 130.606 8.27654C130.074 7.89665 129.564 7.71788 129.099 7.71788C128.633 7.71788 128.256 7.82961 127.968 8.03073C127.613 8.27654 127.436 8.65643 127.436 9.14805C127.436 9.61732 127.591 9.97486 127.946 10.1983C128.234 10.3771 128.855 10.5782 129.852 10.8017C130.828 11.0475 131.603 11.4497 132.135 12.0307C132.756 12.6564 133 13.4162 133 14.3994Z" fill="white"/>
</svg>
