<svg width="63" height="21" viewBox="0 0 63 21" fill="none" xmlns="http://www.w3.org/2000/svg">
<path d="M15.2454 7.56419H8.01071V9.67666H13.142C12.8877 12.6335 10.3839 13.9027 8.01937 13.9027C7.27029 13.906 6.52806 13.7623 5.83601 13.4802C5.14396 13.1981 4.51596 12.7831 3.98868 12.2595C3.46139 11.7359 3.04538 11.1142 2.76494 10.4307C2.4845 9.74713 2.34525 9.01547 2.35531 8.27839C2.35531 5.08041 4.87126 2.61823 8.02631 2.61823C10.4602 2.61823 11.8944 4.14501 11.8944 4.14501L13.3968 2.61312C13.3968 2.61312 11.4668 0.499512 7.94772 0.499512C3.46651 0.499512 0 4.22121 0 8.24087C0 12.1798 3.2608 16.0209 8.06098 16.0209C12.2833 16.0209 15.3742 13.1743 15.3742 8.9653C15.3742 8.0771 15.2431 7.56419 15.2431 7.56419H15.2454Z" fill="white"/>
<path d="M21.1711 6.03475C18.2021 6.03475 16.0745 8.31894 16.0745 10.9818C16.0745 13.6851 18.1374 16.0114 21.2058 16.0114C23.9829 16.0114 26.2579 13.9228 26.2579 11.0398C26.2579 7.74178 23.6113 6.03418 21.1711 6.03418V6.03475ZM21.2 7.99425C22.6596 7.99425 24.043 9.15597 24.043 11.0273C24.043 12.8583 22.6654 14.0536 21.193 14.0536C19.5751 14.0536 18.3038 12.7787 18.3038 11.0126C18.3038 9.28391 19.5635 7.99425 21.2046 7.99425H21.2Z" fill="white"/>
<path d="M32.2558 6.03475C29.2868 6.03475 27.1592 8.31894 27.1592 10.9818C27.1592 13.6851 29.2221 16.0114 32.2905 16.0114C35.0676 16.0114 37.3426 13.9228 37.3426 11.0398C37.3426 7.74178 34.6961 6.03418 32.2558 6.03418V6.03475ZM32.2847 7.99425C33.7443 7.99425 35.1277 9.15597 35.1277 11.0273C35.1277 12.8583 33.7501 14.0536 32.2778 14.0536C30.6598 14.0536 29.3885 12.7787 29.3885 11.0126C29.3885 9.28391 30.6482 7.99425 32.2893 7.99425H32.2847Z" fill="white"/>
<path d="M43.1264 6.04004C40.4013 6.04004 38.2598 8.38849 38.2598 11.0247C38.2598 14.027 40.7428 16.0184 43.079 16.0184C44.5236 16.0184 45.2922 15.4537 45.8527 14.8061V15.7898C45.8527 17.511 44.7906 18.542 43.1877 18.542C41.639 18.542 40.8624 17.4087 40.5873 16.7661L38.6388 17.5622C39.3299 19.0009 40.7214 20.5003 43.2038 20.5003C45.9197 20.5003 47.978 18.8212 47.978 15.2991V6.33971H45.8608V7.1847C45.2078 6.49096 44.3133 6.04004 43.1276 6.04004H43.1264ZM43.3229 7.99613C44.6589 7.99613 46.0307 9.11861 46.0307 11.0355C46.0307 12.9842 44.6612 14.0577 43.2934 14.0577C41.8407 14.0577 40.4891 12.8977 40.4891 11.0537C40.4891 9.13851 41.8933 7.99613 43.3229 7.99613Z" fill="white"/>
<path d="M57.4414 6.02637C54.8712 6.02637 52.7129 8.03933 52.7129 11.0076C52.7129 14.1498 55.1185 16.0132 57.6824 16.0132C59.8274 16.0132 61.1495 14.8589 61.9296 13.824L60.177 12.6765C59.7222 13.3702 58.9617 14.0498 57.6934 14.0498C56.2684 14.0498 55.6131 13.2821 55.2069 12.5372L62.0041 9.76228L61.6574 8.94914C61.001 7.35697 59.4685 6.02637 57.4414 6.02637ZM57.5298 7.94493C58.4561 7.94493 59.1224 8.42941 59.4055 9.01055L54.866 10.8774C54.6695 9.4319 56.0621 7.94493 57.5241 7.94493H57.5298Z" fill="white"/>
<path d="M49.4661 15.7178H51.6989V1.01465H49.4661V15.7178Z" fill="white"/>
</svg>
