<svg width="134" height="21" viewBox="0 0 134 21" fill="none" xmlns="http://www.w3.org/2000/svg">
<path d="M9.28118 5.27149V20.434H3.81744V5.2124C3.11142 5.2124 1.76966 5.2124 1.08296 5.2124C-0.0761784 5.2124 0.00107038 5.4381 0.00107038 4.29794C0.00107038 3.34574 0.00107038 1.59777 0.00107038 0.554409C0.406768 0.537526 0.743971 0.510513 1.08293 0.510513C5.41388 0.507137 9.74483 0.535838 14.0758 0.500384C18.5279 0.46493 21.8174 2.88931 23.319 6.8416C24.8663 10.9188 23.9179 14.5925 21.1325 17.8594C19.7345 19.4987 17.7604 20.2686 15.6002 20.4391C14.0635 20.5606 12.5057 20.4627 10.8003 20.4627C10.8003 18.9956 10.7828 17.5487 10.8284 16.1036C10.832 15.9736 11.2359 15.7625 11.4625 15.749C12.4267 15.6967 13.3944 15.7288 14.3585 15.6882C16.7506 15.5903 18.1029 14.5014 18.556 12.2661C18.8616 10.7551 18.7843 9.26598 18.261 7.78029C17.7376 6.29966 16.6505 5.43357 15.1418 5.30694C13.2345 5.14824 11.3026 5.26811 9.28293 5.26811L9.28118 5.27149Z" fill="white"/>
<path d="M30.1965 15.3745V5.0225H26.7327V3.5825H35.2505V5.0225H31.7867V15.3745H30.1965Z" fill="white"/>
<path d="M39.2565 15.4705C38.6162 15.4705 38.0599 15.4012 37.5876 15.2625C37.1257 15.1238 36.7426 14.8945 36.4382 14.5745C36.1338 14.2438 35.9082 13.7958 35.7612 13.2305C35.6143 12.6652 35.5408 11.9505 35.5408 11.0865C35.5408 10.1905 35.6143 9.45984 35.7612 8.8945C35.9082 8.3185 36.1338 7.8705 36.4382 7.5505C36.7426 7.2305 37.131 7.01184 37.6033 6.8945C38.0757 6.7665 38.6267 6.7025 39.2565 6.7025C39.8863 6.7025 40.4373 6.7665 40.9097 6.8945C41.382 7.0225 41.7704 7.2465 42.0748 7.5665C42.3792 7.8865 42.6048 8.3345 42.7518 8.9105C42.8987 9.47584 42.9722 10.2012 42.9722 11.0865C42.9722 11.9612 42.8987 12.6865 42.7518 13.2625C42.6048 13.8278 42.3792 14.2705 42.0748 14.5905C41.7809 14.9105 41.3978 15.1398 40.9254 15.2785C40.4531 15.4065 39.8968 15.4705 39.2565 15.4705ZM39.2565 14.1585C39.6029 14.1585 39.9073 14.1265 40.1697 14.0625C40.4426 13.9985 40.6683 13.8652 40.8467 13.6625C41.0251 13.4492 41.1616 13.1345 41.2561 12.7185C41.3505 12.3025 41.3978 11.7532 41.3978 11.0705C41.3978 10.3878 41.3505 9.84384 41.2561 9.4385C41.1616 9.0225 41.0251 8.71317 40.8467 8.5105C40.6683 8.30784 40.4426 8.1745 40.1697 8.1105C39.9073 8.03584 39.6029 7.9985 39.2565 7.9985C38.8996 7.9985 38.5847 8.03584 38.3118 8.1105C38.0494 8.1745 37.829 8.30784 37.6506 8.5105C37.4826 8.71317 37.3514 9.0225 37.2569 9.4385C37.173 9.84384 37.131 10.3878 37.131 11.0705C37.131 11.7532 37.173 12.3025 37.2569 12.7185C37.3514 13.1345 37.4826 13.4492 37.6506 13.6625C37.829 13.8652 38.0494 13.9985 38.3118 14.0625C38.5847 14.1265 38.8996 14.1585 39.2565 14.1585Z" fill="white"/>
<path d="M44.8958 19.1665V6.8145H46.1868L46.4702 7.6785C46.6697 7.52917 46.9058 7.37984 47.1787 7.2305C47.4621 7.08117 47.7665 6.9585 48.0919 6.8625C48.4278 6.75584 48.7637 6.7025 49.0996 6.7025C49.6349 6.7025 50.0915 6.8145 50.4693 7.0385C50.8577 7.2625 51.1726 7.57717 51.414 7.9825C51.6554 8.37717 51.8286 8.84117 51.9336 9.3745C52.0491 9.90784 52.1068 10.4785 52.1068 11.0865C52.1068 12.0358 52.0018 12.8412 51.7919 13.5025C51.5925 14.1532 51.2723 14.6492 50.8315 14.9905C50.4011 15.3212 49.8238 15.4865 49.0996 15.4865C48.6587 15.4865 48.2074 15.4225 47.7455 15.2945C47.2837 15.1558 46.8586 14.9745 46.4702 14.7505V19.1665H44.8958ZM48.6272 14.1425C48.9841 14.1425 49.3043 14.0518 49.5877 13.8705C49.8711 13.6892 50.0967 13.3798 50.2647 12.9425C50.4431 12.4945 50.5323 11.8758 50.5323 11.0865C50.5323 10.3398 50.4431 9.7425 50.2647 9.2945C50.0862 8.83584 49.8553 8.5105 49.5719 8.3185C49.2885 8.11584 48.9789 8.0145 48.643 8.0145C48.2021 8.0145 47.798 8.08384 47.4306 8.2225C47.0738 8.36117 46.7536 8.50517 46.4702 8.6545V13.5345C46.7956 13.7158 47.142 13.8652 47.5094 13.9825C47.8872 14.0892 48.2599 14.1425 48.6272 14.1425Z" fill="white"/>
<path d="M54.0761 15.3745V3.5825H58.768C59.4922 3.5825 60.101 3.71584 60.5943 3.9825C61.0877 4.24917 61.4865 4.6385 61.7909 5.1505C62.0953 5.65184 62.3158 6.2705 62.4522 7.0065C62.5887 7.73184 62.6569 8.5585 62.6569 9.4865C62.6569 10.7452 62.5099 11.8118 62.216 12.6865C61.9326 13.5612 61.5023 14.2278 60.925 14.6865C60.3477 15.1452 59.6287 15.3745 58.768 15.3745H54.0761ZM55.6663 13.9345H58.6263C59.2036 13.9345 59.6707 13.7585 60.0275 13.4065C60.3844 13.0438 60.6468 12.5318 60.8148 11.8705C60.9827 11.1985 61.0667 10.4038 61.0667 9.4865C61.0667 8.64384 61.0195 7.93984 60.925 7.3745C60.8305 6.7985 60.6836 6.33984 60.4841 5.9985C60.2847 5.6465 60.0275 5.39584 59.7127 5.2465C59.4083 5.09717 59.0461 5.0225 58.6263 5.0225H55.6663V13.9345Z" fill="white"/>
<path d="M67.791 15.4705C66.8988 15.4705 66.185 15.3372 65.6497 15.0705C65.1249 14.8038 64.747 14.3558 64.5161 13.7265C64.2957 13.0865 64.1855 12.2065 64.1855 11.0865C64.1855 9.94517 64.2957 9.05984 64.5161 8.4305C64.747 7.7905 65.1249 7.3425 65.6497 7.0865C66.1745 6.8305 66.883 6.7025 67.7752 6.7025C68.552 6.7025 69.1765 6.78784 69.6488 6.9585C70.1317 7.1185 70.4833 7.41184 70.7037 7.8385C70.9346 8.2545 71.0501 8.83584 71.0501 9.5825C71.0501 10.1052 70.9451 10.5212 70.7352 10.8305C70.5358 11.1398 70.2471 11.3638 69.8693 11.5025C69.5019 11.6412 69.061 11.7105 68.5467 11.7105H65.7599C65.7704 12.3292 65.8386 12.8252 65.9646 13.1985C66.1011 13.5612 66.3372 13.8278 66.6731 13.9985C67.0195 14.1585 67.5233 14.2385 68.1846 14.2385H70.8139V15.1985C70.3626 15.2625 69.9008 15.3212 69.4284 15.3745C68.9561 15.4385 68.4103 15.4705 67.791 15.4705ZM65.7442 10.7025H68.405C68.8249 10.7025 69.1345 10.6225 69.3339 10.4625C69.5334 10.3025 69.6331 10.0092 69.6331 9.5825C69.6331 9.15584 69.5701 8.81984 69.4442 8.5745C69.3287 8.32917 69.1345 8.15317 68.8616 8.0465C68.5887 7.93984 68.2266 7.8865 67.7752 7.8865C67.2609 7.8865 66.8516 7.9665 66.5472 8.1265C66.2533 8.2865 66.0433 8.56917 65.9174 8.9745C65.8019 9.37984 65.7442 9.95584 65.7442 10.7025Z" fill="white"/>
<path d="M75.0378 15.3745L71.9833 6.8145H73.605L75.9825 13.8865L78.4071 6.8145H80.0288L76.8642 15.3745H75.0378Z" fill="white"/>
<path d="M84.412 15.4705C83.5198 15.4705 82.806 15.3372 82.2707 15.0705C81.7459 14.8038 81.368 14.3558 81.1371 13.7265C80.9167 13.0865 80.8065 12.2065 80.8065 11.0865C80.8065 9.94517 80.9167 9.05984 81.1371 8.4305C81.368 7.7905 81.7459 7.3425 82.2707 7.0865C82.7955 6.8305 83.504 6.7025 84.3962 6.7025C85.173 6.7025 85.7975 6.78784 86.2698 6.9585C86.7527 7.1185 87.1043 7.41184 87.3247 7.8385C87.5556 8.2545 87.6711 8.83584 87.6711 9.5825C87.6711 10.1052 87.5661 10.5212 87.3562 10.8305C87.1568 11.1398 86.8681 11.3638 86.4903 11.5025C86.1229 11.6412 85.682 11.7105 85.1677 11.7105H82.3809C82.3914 12.3292 82.4596 12.8252 82.5856 13.1985C82.7221 13.5612 82.9582 13.8278 83.2941 13.9985C83.6405 14.1585 84.1443 14.2385 84.8056 14.2385H87.4349V15.1985C86.9836 15.2625 86.5217 15.3212 86.0494 15.3745C85.5771 15.4385 85.0313 15.4705 84.412 15.4705ZM82.3652 10.7025H85.026C85.4459 10.7025 85.7555 10.6225 85.9549 10.4625C86.1544 10.3025 86.2541 10.0092 86.2541 9.5825C86.2541 9.15584 86.1911 8.81984 86.0652 8.5745C85.9497 8.32917 85.7555 8.15317 85.4826 8.0465C85.2097 7.93984 84.8476 7.8865 84.3962 7.8865C83.8819 7.8865 83.4725 7.9665 83.1681 8.1265C82.8742 8.2865 82.6643 8.56917 82.5384 8.9745C82.4229 9.37984 82.3652 9.95584 82.3652 10.7025Z" fill="white"/>
<path d="M91.9385 15.3905C91.4242 15.3905 90.9886 15.2998 90.6317 15.1185C90.2853 14.9372 90.0229 14.6492 89.8445 14.2545C89.6765 13.8492 89.5926 13.3052 89.5926 12.6225V3.1665H91.167V12.4145C91.167 12.8625 91.209 13.2092 91.293 13.4545C91.3874 13.6892 91.5134 13.8545 91.6708 13.9505C91.8388 14.0465 92.033 14.1105 92.2534 14.1425L93.0406 14.2385V15.3905H91.9385Z" fill="white"/>
<path d="M97.7452 15.4705C97.1049 15.4705 96.5486 15.4012 96.0762 15.2625C95.6144 15.1238 95.2313 14.8945 94.9269 14.5745C94.6225 14.2438 94.3968 13.7958 94.2499 13.2305C94.1029 12.6652 94.0294 11.9505 94.0294 11.0865C94.0294 10.1905 94.1029 9.45984 94.2499 8.8945C94.3968 8.3185 94.6225 7.8705 94.9269 7.5505C95.2313 7.2305 95.6197 7.01184 96.092 6.8945C96.5643 6.7665 97.1154 6.7025 97.7452 6.7025C98.375 6.7025 98.926 6.7665 99.3984 6.8945C99.8707 7.0225 100.259 7.2465 100.563 7.5665C100.868 7.8865 101.094 8.3345 101.24 8.9105C101.387 9.47584 101.461 10.2012 101.461 11.0865C101.461 11.9612 101.387 12.6865 101.24 13.2625C101.094 13.8278 100.868 14.2705 100.563 14.5905C100.27 14.9105 99.8864 15.1398 99.4141 15.2785C98.9418 15.4065 98.3855 15.4705 97.7452 15.4705ZM97.7452 14.1585C98.0916 14.1585 98.396 14.1265 98.6584 14.0625C98.9313 13.9985 99.1569 13.8652 99.3354 13.6625C99.5138 13.4492 99.6503 13.1345 99.7447 12.7185C99.8392 12.3025 99.8864 11.7532 99.8864 11.0705C99.8864 10.3878 99.8392 9.84384 99.7447 9.4385C99.6503 9.0225 99.5138 8.71317 99.3354 8.5105C99.1569 8.30784 98.9313 8.1745 98.6584 8.1105C98.396 8.03584 98.0916 7.9985 97.7452 7.9985C97.3883 7.9985 97.0734 8.03584 96.8005 8.1105C96.5381 8.1745 96.3177 8.30784 96.1392 8.5105C95.9713 8.71317 95.8401 9.0225 95.7456 9.4385C95.6616 9.84384 95.6197 10.3878 95.6197 11.0705C95.6197 11.7532 95.6616 12.3025 95.7456 12.7185C95.8401 13.1345 95.9713 13.4492 96.1392 13.6625C96.3177 13.8652 96.5381 13.9985 96.8005 14.0625C97.0734 14.1265 97.3883 14.1585 97.7452 14.1585Z" fill="white"/>
<path d="M103.384 19.1665V6.8145H104.675L104.959 7.6785C105.158 7.52917 105.395 7.37984 105.667 7.2305C105.951 7.08117 106.255 6.9585 106.581 6.8625C106.916 6.75584 107.252 6.7025 107.588 6.7025C108.124 6.7025 108.58 6.8145 108.958 7.0385C109.346 7.2625 109.661 7.57717 109.903 7.9825C110.144 8.37717 110.317 8.84117 110.422 9.3745C110.538 9.90784 110.595 10.4785 110.595 11.0865C110.595 12.0358 110.491 12.8412 110.281 13.5025C110.081 14.1532 109.761 14.6492 109.32 14.9905C108.89 15.3212 108.312 15.4865 107.588 15.4865C107.147 15.4865 106.696 15.4225 106.234 15.2945C105.772 15.1558 105.347 14.9745 104.959 14.7505V19.1665H103.384ZM107.116 14.1425C107.473 14.1425 107.793 14.0518 108.076 13.8705C108.36 13.6892 108.585 13.3798 108.753 12.9425C108.932 12.4945 109.021 11.8758 109.021 11.0865C109.021 10.3398 108.932 9.7425 108.753 9.2945C108.575 8.83584 108.344 8.5105 108.061 8.3185C107.777 8.11584 107.468 8.0145 107.132 8.0145C106.691 8.0145 106.287 8.08384 105.919 8.2225C105.562 8.36117 105.242 8.50517 104.959 8.6545V13.5345C105.284 13.7158 105.631 13.8652 105.998 13.9825C106.376 14.0892 106.749 14.1425 107.116 14.1425Z" fill="white"/>
<path d="M115.84 15.4705C114.947 15.4705 114.234 15.3372 113.698 15.0705C113.174 14.8038 112.796 14.3558 112.565 13.7265C112.344 13.0865 112.234 12.2065 112.234 11.0865C112.234 9.94517 112.344 9.05984 112.565 8.4305C112.796 7.7905 113.174 7.3425 113.698 7.0865C114.223 6.8305 114.932 6.7025 115.824 6.7025C116.601 6.7025 117.225 6.78784 117.698 6.9585C118.18 7.1185 118.532 7.41184 118.752 7.8385C118.983 8.2545 119.099 8.83584 119.099 9.5825C119.099 10.1052 118.994 10.5212 118.784 10.8305C118.584 11.1398 118.296 11.3638 117.918 11.5025C117.551 11.6412 117.11 11.7105 116.595 11.7105H113.809C113.819 12.3292 113.887 12.8252 114.013 13.1985C114.15 13.5612 114.386 13.8278 114.722 13.9985C115.068 14.1585 115.572 14.2385 116.233 14.2385H118.863V15.1985C118.411 15.2625 117.949 15.3212 117.477 15.3745C117.005 15.4385 116.459 15.4705 115.84 15.4705ZM113.793 10.7025H116.454C116.874 10.7025 117.183 10.6225 117.383 10.4625C117.582 10.3025 117.682 10.0092 117.682 9.5825C117.682 9.15584 117.619 8.81984 117.493 8.5745C117.377 8.32917 117.183 8.15317 116.91 8.0465C116.637 7.93984 116.275 7.8865 115.824 7.8865C115.31 7.8865 114.9 7.9665 114.596 8.1265C114.302 8.2865 114.092 8.56917 113.966 8.9745C113.851 9.37984 113.793 9.95584 113.793 10.7025Z" fill="white"/>
<path d="M121.02 15.3745V6.8145H122.233L122.595 8.2545C122.952 7.81717 123.35 7.44917 123.791 7.1505C124.232 6.85184 124.746 6.7025 125.334 6.7025C125.471 6.7025 125.602 6.71317 125.728 6.7345C125.854 6.74517 125.975 6.7665 126.09 6.7985V8.4465C125.943 8.42517 125.791 8.40917 125.633 8.3985C125.476 8.37717 125.313 8.3665 125.145 8.3665C124.788 8.3665 124.468 8.40917 124.185 8.4945C123.901 8.57984 123.629 8.71317 123.366 8.8945C123.114 9.06517 122.857 9.2785 122.595 9.5345V15.3745H121.02Z" fill="white"/>
<path d="M130.514 15.4705C130.294 15.4705 130.032 15.4652 129.727 15.4545C129.423 15.4438 129.108 15.4225 128.783 15.3905C128.468 15.3692 128.174 15.3425 127.901 15.3105C127.638 15.2785 127.429 15.2412 127.271 15.1985V14.2385H130.814C131.118 14.2385 131.38 14.2172 131.601 14.1745C131.821 14.1212 131.989 14.0145 132.105 13.8545C132.231 13.6945 132.294 13.4598 132.294 13.1505V12.7985C132.294 12.4785 132.189 12.2278 131.979 12.0465C131.769 11.8652 131.422 11.7745 130.94 11.7745H129.711C129.218 11.7745 128.777 11.7105 128.389 11.5825C128.011 11.4438 127.712 11.2145 127.491 10.8945C127.282 10.5745 127.177 10.1425 127.177 9.5985V9.1345C127.177 8.5905 127.276 8.1425 127.476 7.7905C127.686 7.4385 128.016 7.17717 128.468 7.0065C128.919 6.82517 129.517 6.7345 130.263 6.7345C130.577 6.7345 130.924 6.7505 131.302 6.7825C131.69 6.80384 132.068 6.83584 132.435 6.8785C132.803 6.92117 133.097 6.96917 133.317 7.0225V7.9825H129.979C129.517 7.9825 129.16 8.0625 128.909 8.2225C128.667 8.3825 128.546 8.6865 128.546 9.1345V9.4545C128.546 9.73184 128.604 9.94517 128.72 10.0945C128.835 10.2438 128.998 10.3398 129.208 10.3825C129.428 10.4252 129.685 10.4465 129.979 10.4465H131.239C132.036 10.4465 132.64 10.6385 133.049 11.0225C133.459 11.3958 133.663 11.9238 133.663 12.6065V13.2625C133.663 13.8385 133.532 14.2865 133.27 14.6065C133.007 14.9265 132.64 15.1505 132.168 15.2785C131.706 15.4065 131.155 15.4705 130.514 15.4705Z" fill="white"/>
</svg>
