<?xml version="1.0" encoding="utf-8"?>
<!-- Generator: Adobe Illustrator 25.1.0, SVG Export Plug-In . SVG Version: 6.00 Build 0)  -->
<svg version="1.1" id="Layer_1" xmlns="http://www.w3.org/2000/svg" xmlns:xlink="http://www.w3.org/1999/xlink" x="0px" y="0px"
	 viewBox="0 0 1159 771" style="enable-background:new 0 0 1159 771;" xml:space="preserve">
<style type="text/css">
	.st0{fill:#FFFFFF;}
	.st1{opacity:0.42;fill:url(#SVGID_1_);}
	.st2{opacity:0.95;}
	.st3{opacity:0.96;}
	.st4{fill:url(#SVGID_2_);}
	.st5{fill:url(#SVGID_3_);}
	.st6{fill:url(#SVGID_4_);}
	.st7{fill:url(#SVGID_5_);}
	.st8{fill:url(#SVGID_6_);}
	.st9{fill:url(#SVGID_7_);}
	.st10{fill:url(#SVGID_8_);}
	.st11{fill:url(#SVGID_9_);}
	.st12{fill:url(#SVGID_10_);}
	.st13{fill:#2C49A1;}
	.st14{fill:#252E74;}
	.st15{fill:url(#SVGID_11_);}
	.st16{fill:#F0F5FF;}
	.st17{fill:#C4D6F7;}
	.st18{fill:#FCDA35;}
	.st19{fill:url(#SVGID_12_);}
	.st20{fill:url(#SVGID_13_);}
	.st21{fill:url(#SVGID_14_);}
	.st22{fill:url(#SVGID_15_);}
	.st23{fill:url(#SVGID_16_);}
	.st24{fill:url(#SVGID_17_);}
	.st25{fill:url(#SVGID_18_);}
	.st26{fill:url(#SVGID_19_);}
	.st27{fill:url(#SVGID_20_);}
	.st28{fill:url(#SVGID_21_);}
	.st29{fill:url(#SVGID_22_);}
	.st30{fill:url(#SVGID_23_);}
	.st31{fill:url(#SVGID_24_);}
	.st32{fill:url(#SVGID_25_);}
	.st33{fill:url(#SVGID_26_);}
	.st34{fill:#665EA9;}
	.st35{fill:url(#SVGID_27_);}
	.st36{fill:#49A1FD;}
	.st37{fill:url(#SVGID_28_);}
	.st38{fill:url(#SVGID_29_);}
	.st39{fill:url(#SVGID_30_);}
	.st40{fill:#3D9DF4;}
	.st41{fill:url(#SVGID_31_);}
	.st42{fill:url(#SVGID_32_);}
	.st43{fill:url(#SVGID_33_);}
	.st44{fill:url(#SVGID_34_);}
	.st45{fill:#DBB5FB;}
	.st46{fill:#C7D9F8;}
	.st47{fill:#628CD2;}
	.st48{fill:url(#SVGID_35_);}
	.st49{fill:url(#SVGID_36_);}
	.st50{fill:url(#SVGID_37_);}
	.st51{fill:url(#SVGID_38_);}
	.st52{fill:url(#SVGID_39_);}
	.st53{fill:#5955A0;}
	.st54{opacity:0.85;fill:#1B327B;}
	.st55{fill:url(#SVGID_40_);}
	.st56{fill:url(#SVGID_41_);}
	.st57{fill:url(#SVGID_42_);}
	.st58{fill:url(#SVGID_43_);}
	.st59{fill:url(#SVGID_44_);}
	.st60{fill:url(#SVGID_45_);}
	.st61{fill:#FFF2F2;}
	.st62{fill:url(#SVGID_46_);}
	.st63{fill:url(#SVGID_47_);}
	.st64{fill:url(#SVGID_48_);}
	.st65{fill:#1A317A;}
	.st66{fill:url(#SVGID_49_);}
	.st67{fill:url(#SVGID_50_);}
	.st68{fill:url(#SVGID_51_);}
	.st69{fill:url(#SVGID_52_);}
	.st70{fill:url(#SVGID_53_);}
	.st71{fill:url(#SVGID_54_);}
</style>
<rect class="st0" width="1159" height="771"/>
<g>
	<g>
		<linearGradient id="SVGID_1_" gradientUnits="userSpaceOnUse" x1="576.1527" y1="108.5673" x2="576.1527" y2="589.657">
			<stop  offset="4.278860e-03" style="stop-color:#DBB5FB"/>
			<stop  offset="0.1595" style="stop-color:#DEAFE9"/>
			<stop  offset="0.4706" style="stop-color:#E6A0BB"/>
			<stop  offset="0.9052" style="stop-color:#F28870"/>
			<stop  offset="1" style="stop-color:#F5835F"/>
		</linearGradient>
		<path class="st1" d="M324.7,164.02c-48.58,13.79-65.38,63.49-65.38,63.49c-5.36,23.26-9.1,40.72-4.01,98.31
			c4.27,48.3-6.32,63.2-19.25,82.89c-18.86,28.73-24.74,34.41-33.04,62.61c-7.09,24.1,1.3,56.27,14.07,78.77
			c22.28,39.24,87.45,47.87,137.87,32.17c37.26-11.6,57.7-23.94,88.77-36.26c63.32-25.1,84.84-9.74,203.12,15.27
			c101.21,21.4,168,11.6,208.36-6.39c78.01-34.76,114.56-123.09,88.1-182.32c-18.23-40.82-66.06-40.2-77.56-89.07
			c-7.56-32.15,10.35-44.28,2.59-83.78c-5.35-27.22-38.32-62.36-63.77-77.32c-48.86-28.72-104.97-9.19-193.62,26.46
			C477.82,202.39,421.19,136.63,324.7,164.02z"/>
	</g>
	<g class="st2">
		<g class="st3">
			<g>
				
					<linearGradient id="SVGID_2_" gradientUnits="userSpaceOnUse" x1="791.7537" y1="545.2321" x2="791.7537" y2="230.3819" gradientTransform="matrix(0.9646 0.2638 -0.2638 0.9646 178.9609 -239.6377)">
					<stop  offset="4.500000e-07" style="stop-color:#A3256E"/>
					<stop  offset="0.184" style="stop-color:#A42971"/>
					<stop  offset="0.3499" style="stop-color:#A9347C"/>
					<stop  offset="0.5088" style="stop-color:#B0468E"/>
					<stop  offset="0.6633" style="stop-color:#BA60A8"/>
					<stop  offset="0.8148" style="stop-color:#C781C8"/>
					<stop  offset="0.9619" style="stop-color:#D6A9F0"/>
					<stop  offset="1" style="stop-color:#DBB5FB"/>
				</linearGradient>
				<path class="st4" d="M774.27,488.29c-6.55,0.82-0.01-31.81,0.46-66.84c0.37-27.81,3.92-31.27-3.64-74.5
					c-9.02-51.56,9.66-78.77,15.18-88.64c9.76-17.42,19.12-22.84,30.97-30.15c57.56-35.5,135.41-26.57,139.37-10.1
					c1.23,5.1-5.73,6.42-19.21,25.26c-2.64,3.69-17.64,25.01-25.27,53.38c-6.27,23.3-3.03,36.84-8.01,52.6
					c-10.26,32.44-22.08,28.08-56.1,48.52c-20.01,12.02-43.78,23.69-52.55,34.01C774.81,456.18,775.95,488.08,774.27,488.29z"/>
				
					<linearGradient id="SVGID_3_" gradientUnits="userSpaceOnUse" x1="756.6303" y1="400.2761" x2="828.4933" y2="400.2761" gradientTransform="matrix(0.9646 0.2638 -0.2638 0.9646 178.9609 -239.6377)">
					<stop  offset="0" style="stop-color:#FFFFFF"/>
					<stop  offset="0.1734" style="stop-color:#EAF1FF"/>
					<stop  offset="0.5289" style="stop-color:#C6D7FF"/>
					<stop  offset="0.8171" style="stop-color:#AFC7FF"/>
					<stop  offset="1" style="stop-color:#A7C1FF"/>
				</linearGradient>
				<path class="st5" d="M772.81,487.72c0.1,0.02,6.65-58.85,23.84-117.24c16.11-54.72,31.43-85.9,49.81-105.86
					c29.56-32.1,64.09-39.43,64.24-39.14c0.08,0.15-35.67,13.52-60.89,42.41C803.85,320.54,772.58,487.68,772.81,487.72z"/>
			</g>
			<g>
				
					<linearGradient id="SVGID_4_" gradientUnits="userSpaceOnUse" x1="753.1937" y1="469.4583" x2="975.5374" y2="469.4583" gradientTransform="matrix(0.9909 0.1349 -0.1349 0.9909 94.3082 -139.0532)">
					<stop  offset="5.200000e-07" style="stop-color:#A3256E"/>
					<stop  offset="0.2563" style="stop-color:#992F78"/>
					<stop  offset="0.6969" style="stop-color:#7D4993"/>
					<stop  offset="1" style="stop-color:#665EA9"/>
				</linearGradient>
				<path class="st6" d="M773.66,501.63c8.54,10.29,26.92,11.66,39.43,7.93c34.57-10.3,51.23-38.36,78.36-60.64
					c57.83-47.49,118.93-54.15,116.1-65.62c-0.69-2.78-4.69-4.06-12.75-5.83c-46.1-10.16-81.31-8.61-81.32-8.61
					c-44.63,1.24-65.59,10.94-83.34,22.25C784.58,420.12,759.37,484.42,773.66,501.63z"/>
				
					<linearGradient id="SVGID_5_" gradientUnits="userSpaceOnUse" x1="758.6843" y1="472.9848" x2="945.5853" y2="472.9848" gradientTransform="matrix(0.9909 0.1349 -0.1349 0.9909 94.3082 -139.0532)">
					<stop  offset="0" style="stop-color:#FFFFFF"/>
					<stop  offset="0.1734" style="stop-color:#EAF1FF"/>
					<stop  offset="0.5289" style="stop-color:#C6D7FF"/>
					<stop  offset="0.8171" style="stop-color:#AFC7FF"/>
					<stop  offset="1" style="stop-color:#A7C1FF"/>
				</linearGradient>
				<path class="st7" d="M976.6,388.28c-6.79-0.56-45.78-2.32-75.61,5.3c-80.24,20.48-112.14,80.68-127.83,106.99
					c-1.55,2.6,4.57-11.88,11.62-23.16c7.54-12.06,24.35-38.04,52-57.71c12.3-8.75,54.05-37.88,120.8-33.27
					C963.25,386.82,979.09,388.48,976.6,388.28z"/>
			</g>
		</g>
		<g class="st3">
			<g>
				
					<linearGradient id="SVGID_6_" gradientUnits="userSpaceOnUse" x1="413.2778" y1="572.0999" x2="224.3813" y2="244.9215" gradientTransform="matrix(0.8863 -0.159 0.3279 0.8787 -84.9168 60.6681)">
					<stop  offset="5.200000e-07" style="stop-color:#A3256E"/>
					<stop  offset="0.2502" style="stop-color:#9F2972"/>
					<stop  offset="0.5118" style="stop-color:#92357E"/>
					<stop  offset="0.7776" style="stop-color:#7D4892"/>
					<stop  offset="1" style="stop-color:#665EA9"/>
				</linearGradient>
				<path class="st8" d="M461.79,504.52c10.62-10.74-3.54-46.9-14.11-76.11c-26.32-72.74-35.86-109.17-77.95-138.84
					c-74.68-52.64-193.67-46.42-203.36-21.1c-2.66,6.95,4.07,12.3,19.4,34.8c39.6,58.12,36.02,86.83,82.9,122.37
					c38,28.8,102.86,21.66,136.01,35.11C459.05,482.8,456.51,509.86,461.79,504.52z"/>
				
					<linearGradient id="SVGID_7_" gradientUnits="userSpaceOnUse" x1="233.3364" y1="433.987" x2="408.4965" y2="433.987" gradientTransform="matrix(0.8863 -0.159 0.3279 0.8787 -84.9168 60.6681)">
					<stop  offset="0" style="stop-color:#FFFFFF"/>
					<stop  offset="0.1734" style="stop-color:#EAF1FF"/>
					<stop  offset="0.5289" style="stop-color:#C6D7FF"/>
					<stop  offset="0.8171" style="stop-color:#AFC7FF"/>
					<stop  offset="1" style="stop-color:#A7C1FF"/>
				</linearGradient>
				<path class="st9" d="M465.04,500.71c-1.04,0.42-24.3-68.88-101.19-133.94c-70.16-59.36-146.94-83.02-145.69-85.33
					c1.04-1.92,55.04,11.97,108.56,46.78C431.37,396.28,466.32,500.2,465.04,500.71z"/>
			</g>
			<g>
				
					<linearGradient id="SVGID_8_" gradientUnits="userSpaceOnUse" x1="309.7953" y1="636.7687" x2="184.5576" y2="419.8507" gradientTransform="matrix(0.9309 -0.3653 0.3653 0.9309 -116.4282 117.8962)">
					<stop  offset="4.500000e-07" style="stop-color:#A3256E"/>
					<stop  offset="0.1577" style="stop-color:#A9357E"/>
					<stop  offset="0.4665" style="stop-color:#BA5FA7"/>
					<stop  offset="0.8927" style="stop-color:#D4A3E9"/>
					<stop  offset="1" style="stop-color:#DBB5FB"/>
				</linearGradient>
				<path class="st10" d="M460.83,526.86c5.56-4.55-19.8-16.69-41.99-34.71c-17.61-14.3-22.5-13.42-43.6-41.84
					c-25.16-33.9-56.5-33.98-66.91-34.95c-18.37-1.72-28.96,2.56-42.64,7.73c-66.47,25.13-120.9,89-113.69,100.65
					c2.23,3.61,8.41-0.99,30.54-1.35c4.33-0.07,29.17-0.29,52.72,8.79c19.34,7.45,25.28,17.02,38.94,21.5
					c28.11,9.22,34.5-2.06,73.45-17.2c22.91-8.9,48.5-20.86,61.68-22.11C440.41,510.43,459.4,528.03,460.83,526.86z"/>
				
					<linearGradient id="SVGID_9_" gradientUnits="userSpaceOnUse" x1="150.2083" y1="523.9615" x2="389.1987" y2="523.9615" gradientTransform="matrix(0.9309 -0.3653 0.3653 0.9309 -116.4282 117.8962)">
					<stop  offset="0" style="stop-color:#FFFFFF"/>
					<stop  offset="0.1734" style="stop-color:#EAF1FF"/>
					<stop  offset="0.5289" style="stop-color:#C6D7FF"/>
					<stop  offset="0.8171" style="stop-color:#AFC7FF"/>
					<stop  offset="1" style="stop-color:#A7C1FF"/>
				</linearGradient>
				<path class="st11" d="M461.6,525.45c-0.06,0.09-41.77-25.81-91.38-43.37c-46.49-16.46-77.72-21.17-104.31-17.66
					c-42.77,5.64-73.95,28.04-73.89,28.31c0.03,0.13,35.91-20.03,73.33-24.04C333.56,461.36,461.74,525.26,461.6,525.45z"/>
			</g>
		</g>
	</g>
	<g>
		<linearGradient id="SVGID_10_" gradientUnits="userSpaceOnUse" x1="543.983" y1="607.8639" x2="543.983" y2="538.6063">
			<stop  offset="6.300000e-07" style="stop-color:#2C49A1"/>
			<stop  offset="1" style="stop-color:#665EA9"/>
		</linearGradient>
		<polygon class="st12" points="636.76,607.86 462.35,607.86 451.21,538.61 625.61,538.61 		"/>
		<g>
			<path class="st13" d="M649.84,614.45H438.13c-4.03,0-7.31-2.55-7.34-5.7l0,0c-0.04-3.2,3.26-5.81,7.34-5.81h211.71
				c4.03,0,7.31,2.55,7.34,5.7l0,0C657.22,611.83,653.92,614.45,649.84,614.45z"/>
		</g>
		<g>
			<g>
				<path class="st14" d="M801.16,539.96H287.99c-7.54,0-12.8-6.31-11.74-14.1l45.58-334.77c1.06-7.79,8.03-14.1,15.58-14.1h513.17
					c7.54,0,12.8,6.31,11.74,14.1l-45.58,334.77C815.68,533.65,808.71,539.96,801.16,539.96z"/>
			</g>
			<g>
				<linearGradient id="SVGID_11_" gradientUnits="userSpaceOnUse" x1="566.1954" y1="534.7552" x2="566.1954" y2="168.8689">
					<stop  offset="6.300000e-07" style="stop-color:#2C49A1"/>
					<stop  offset="1" style="stop-color:#665EA9"/>
				</linearGradient>
				<path class="st15" d="M791.26,534.76H293.17c-5.14,0-9.75-2.12-12.96-5.96c-3.2-3.82-4.62-9.05-3.91-14.35l44.24-326.87
					c1.42-10.49,10.47-18.71,20.6-18.71h498.09c5.14,0,9.75,2.12,12.96,5.96c3.2,3.82,4.62,9.05,3.91,14.35l-44.24,326.87
					C810.43,526.54,801.39,534.76,791.26,534.76z M341.14,180.35c-4.58,0-9,4.04-9.64,8.82l-44.24,326.87
					c-0.27,2.03,0.19,3.88,1.3,5.21c1.08,1.3,2.72,2.01,4.61,2.01h498.09c4.58,0,9-4.04,9.64-8.82l44.24-326.87
					c0.27-2.03-0.19-3.88-1.3-5.22c-1.08-1.3-2.72-2.01-4.61-2.01H341.14z"/>
			</g>
			<g>
				<path class="st16" d="M791.26,529.01H293.17c-7.32,0-12.42-6.16-11.39-13.77l44.24-326.87c1.03-7.6,7.8-13.77,15.12-13.77
					h498.09c7.32,0,12.42,6.16,11.39,13.77l-44.24,326.87C805.35,522.85,798.58,529.01,791.26,529.01z"/>
			</g>
		</g>
		<g>
			<g>
				<g>
					<g>
						<path class="st17" d="M795.39,335.81l-1.31,7.75c-0.14,0.84,0.52,1.61,1.38,1.59l8.56-0.21c0.66-0.02,1.21-0.5,1.32-1.14
							l0.78-4.6c0.11-0.65-0.26-1.28-0.88-1.5l-8.02-2.94C796.41,334.46,795.53,334.97,795.39,335.81z"/>
						<path class="st17" d="M789.66,353.24l-5.63,5.52c-0.61,0.6-0.53,1.61,0.18,2.09l7.03,4.84c0.54,0.37,1.27,0.31,1.74-0.15
							l3.34-3.28c0.47-0.46,0.55-1.19,0.18-1.73l-4.74-7.08C791.28,352.74,790.27,352.64,789.66,353.24z"/>
						<path class="st17" d="M774.74,364.01l-7.8,1.18c-0.85,0.13-1.37,1-1.09,1.8l2.82,8.04c0.22,0.62,0.84,0.99,1.49,0.9l4.63-0.7
							c0.65-0.1,1.14-0.64,1.17-1.3l0.35-8.52C776.35,364.55,775.59,363.88,774.74,364.01z"/>
						<path class="st17" d="M756.34,364.01l-7-3.61c-0.76-0.39-1.7,0-1.95,0.82l-2.47,8.17c-0.19,0.63,0.1,1.3,0.68,1.6l4.15,2.15
							c0.58,0.3,1.3,0.15,1.71-0.37l5.31-6.7C757.32,365.39,757.1,364.4,756.34,364.01z"/>
						<path class="st17" d="M741.49,353.23l-3.52-7.02c-0.38-0.77-1.37-0.99-2.06-0.47l-6.81,5.18c-0.52,0.4-0.69,1.11-0.4,1.7
							l2.09,4.17c0.29,0.59,0.96,0.88,1.6,0.7l8.24-2.32C741.46,354.93,741.87,354,741.49,353.23z"/>
						<path class="st17" d="M735.85,335.81l1.31-7.75c0.14-0.84-0.52-1.61-1.38-1.59l-8.56,0.21c-0.66,0.02-1.21,0.5-1.32,1.14
							l-0.78,4.6c-0.11,0.65,0.26,1.28,0.88,1.5l8.02,2.94C734.83,337.16,735.71,336.65,735.85,335.81z"/>
						<path class="st17" d="M741.58,318.38l5.63-5.52c0.61-0.6,0.53-1.61-0.18-2.09l-7.03-4.84c-0.54-0.37-1.27-0.31-1.74,0.15
							l-3.34,3.28c-0.47,0.46-0.55,1.19-0.18,1.73l4.75,7.08C739.96,318.88,740.97,318.98,741.58,318.38z"/>
						<path class="st17" d="M756.5,307.61l7.8-1.18c0.85-0.13,1.38-0.99,1.09-1.8l-2.82-8.04c-0.22-0.62-0.84-0.99-1.49-0.9
							l-4.63,0.7c-0.65,0.1-1.14,0.64-1.17,1.3l-0.35,8.52C754.89,307.06,755.65,307.74,756.5,307.61z"/>
						<path class="st17" d="M774.9,307.61l7,3.61c0.76,0.39,1.7,0,1.95-0.82l2.46-8.17c0.19-0.63-0.1-1.3-0.68-1.6l-4.15-2.15
							c-0.58-0.3-1.3-0.15-1.71,0.37l-5.31,6.7C773.92,306.23,774.14,307.22,774.9,307.61z"/>
						<path class="st17" d="M789.75,318.38l3.52,7.02c0.38,0.77,1.37,0.99,2.06,0.47l6.81-5.18c0.52-0.4,0.69-1.11,0.4-1.69
							l-2.09-4.17c-0.29-0.59-0.96-0.88-1.6-0.7l-8.24,2.32C789.78,316.69,789.37,317.62,789.75,318.38z"/>
					</g>
					<path class="st17" d="M739.61,319.06c-9.18,14.63-4.71,33.94,9.96,43.04c14.67,9.1,34.07,4.6,43.24-10.03
						c9.18-14.63,4.71-33.94-9.96-43.04C768.18,299.93,748.79,304.43,739.61,319.06z M785.24,347.38
						c-6.57,10.47-20.45,13.69-30.94,7.18s-13.69-20.33-7.13-30.8c6.57-10.47,20.45-13.69,30.94-7.18S791.81,336.91,785.24,347.38z"
						/>
					<path class="st17" d="M792.57,339.9c-2.44,14.48-16.22,24.27-30.78,21.87c-14.56-2.4-24.38-16.07-21.94-30.55
						c2.44-14.48,16.22-24.27,30.78-21.87C785.18,311.75,795.01,325.43,792.57,339.9z M757.65,334.16c-0.79,4.7,2.4,9.14,7.13,9.92
						c4.73,0.78,9.2-2.4,10-7.1c0.79-4.7-2.4-9.14-7.13-9.92C762.92,326.28,758.44,329.46,757.65,334.16z"/>
				</g>
			</g>
			<g>
				<path class="st17" d="M740.21,404.1L740.21,404.1c3.03,0.78,4.8,3.85,3.96,6.85l-9.74,34.96c-1.03,3.7,1.87,7.25,5.73,7.02
					l36.07-2.17c3.14-0.19,5.79,2.17,5.93,5.27l0,0c0.14,3.1-2.29,5.76-5.43,5.95l-36.47,2.19c-3.86,0.23-6.43,4.12-5.07,7.67
					l12.66,33.23c1.1,2.89-0.39,6.15-3.33,7.29l0,0c-2.94,1.14-6.21-0.28-7.32-3.17l-12.8-33.6c-1.35-3.55-5.84-4.71-8.86-2.28
					l-28.24,22.71c-2.46,1.97-6.03,1.63-7.99-0.76l0,0c-1.96-2.4-1.55-5.94,0.91-7.91l28.56-22.96c3.02-2.43,2.82-7.03-0.41-9.08
					l-30.11-19.2c-2.62-1.67-3.34-5.15-1.61-7.76l0,0c1.73-2.62,5.26-3.39,7.88-1.72l30.45,19.41c3.22,2.05,7.58,0.37,8.61-3.33
					l9.63-34.57C734.06,405.13,737.19,403.32,740.21,404.1z"/>
				<g>
					<g>
						<path class="st17" d="M779.88,449.89l0.56,12.52c0.05,1.15,1.15,1.95,2.28,1.67l13.25-3.32c0.87-0.22,1.47-1.01,1.43-1.89
							l-0.33-7.49c-0.04-0.88-0.71-1.6-1.59-1.71L782,447.96C780.85,447.81,779.83,448.74,779.88,449.89z"/>
						<path class="st17" d="M778.95,471.36l-4.33,11.86c-0.4,1.09,0.3,2.25,1.45,2.42l13.44,1.93c0.88,0.13,1.74-0.39,2.04-1.22
							l2.59-7.09c0.3-0.83-0.03-1.76-0.8-2.19l-11.7-6.7C780.64,469.79,779.35,470.27,778.95,471.36z"/>
						<path class="st17" d="M769.79,490.97l-8.57,9.4c-0.79,0.86-0.6,2.21,0.39,2.8l11.59,6.88c0.76,0.45,1.74,0.3,2.35-0.36
							l5.12-5.62c0.6-0.66,0.65-1.64,0.12-2.34l-8.14-10.66C771.95,490.15,770.58,490.11,769.79,490.97z"/>
						<path class="st17" d="M753.8,505.75l-11.49,5.5c-1.06,0.51-1.4,1.83-0.72,2.75l7.97,10.79c0.52,0.71,1.48,0.94,2.29,0.55
							l6.87-3.29c0.81-0.39,1.23-1.28,1.01-2.13l-3.35-13C756.1,505.8,754.85,505.24,753.8,505.75z"/>
						<path class="st17" d="M733.4,513.44l-12.67,0.76c-1.16,0.07-1.99,1.17-1.73,2.29l3.14,13.05c0.21,0.86,1,1.44,1.89,1.38
							l7.58-0.46c0.89-0.05,1.63-0.73,1.76-1.6l1.96-13.36C735.49,514.36,734.57,513.37,733.4,513.44z"/>
						<path class="st17" d="M711.72,512.87l-11.92-4.09c-1.1-0.38-2.28,0.33-2.47,1.47l-2.17,13.33c-0.14,0.87,0.36,1.71,1.2,2
							l7.13,2.45c0.84,0.29,1.78-0.06,2.23-0.82l6.96-11.69C713.28,514.52,712.82,513.25,711.72,512.87z"/>
						<path class="st17" d="M692.04,504.14l-9.36-8.32c-0.86-0.76-2.22-0.55-2.84,0.44l-7.15,11.58c-0.47,0.76-0.33,1.73,0.33,2.32
							l5.6,4.97c0.66,0.58,1.65,0.62,2.37,0.08l10.91-8.24C692.83,506.26,692.9,504.9,692.04,504.14z"/>
						<path class="st17" d="M677.37,488.56L672,477.28c-0.49-1.04-1.83-1.36-2.77-0.67l-11.04,8.06c-0.72,0.53-0.97,1.48-0.6,2.28
							l3.21,6.75c0.38,0.79,1.28,1.2,2.14,0.97l13.2-3.53C677.27,490.84,677.86,489.6,677.37,488.56z"/>
						<path class="st17" d="M669.93,468.51l-0.56-12.53c-0.05-1.15-1.15-1.95-2.28-1.67l-13.25,3.32c-0.87,0.22-1.47,1.01-1.43,1.89
							l0.33,7.49c0.04,0.88,0.71,1.6,1.59,1.71l13.48,1.71C668.96,470.6,669.98,469.67,669.93,468.51z"/>
						<path class="st17" d="M670.86,447.05l4.33-11.86c0.4-1.09-0.3-2.25-1.45-2.42l-13.44-1.93c-0.88-0.13-1.74,0.39-2.04,1.22
							l-2.59,7.09c-0.3,0.83,0.03,1.76,0.8,2.19l11.7,6.7C669.17,448.62,670.47,448.14,670.86,447.05z"/>
						<path class="st17" d="M680.02,427.44l8.57-9.4c0.79-0.86,0.6-2.21-0.39-2.8l-11.59-6.88c-0.76-0.45-1.74-0.3-2.35,0.36
							l-5.12,5.62c-0.6,0.66-0.65,1.64-0.12,2.34l8.14,10.66C677.86,428.26,679.24,428.3,680.02,427.44z"/>
						<path class="st17" d="M696.02,412.66l11.49-5.5c1.06-0.51,1.4-1.83,0.72-2.75l-7.97-10.79c-0.52-0.71-1.48-0.94-2.29-0.55
							l-6.87,3.29c-0.81,0.39-1.23,1.28-1.02,2.13l3.35,13C693.72,412.6,694.96,413.17,696.02,412.66z"/>
						<path class="st17" d="M716.41,404.97l12.67-0.76c1.16-0.07,1.99-1.17,1.73-2.29l-3.14-13.05c-0.21-0.86-1-1.44-1.89-1.38
							l-7.58,0.46c-0.89,0.05-1.63,0.73-1.76,1.6l-1.96,13.36C714.32,404.05,715.24,405.04,716.41,404.97z"/>
						<path class="st17" d="M738.09,405.54l11.92,4.09c1.1,0.38,2.28-0.33,2.47-1.47l2.17-13.33c0.14-0.87-0.36-1.71-1.2-2
							l-7.13-2.45c-0.84-0.29-1.78,0.06-2.23,0.82l-6.96,11.69C736.53,403.88,737,405.16,738.09,405.54z"/>
						<path class="st17" d="M757.77,414.27l9.36,8.32c0.86,0.76,2.22,0.55,2.84-0.44l7.15-11.58c0.47-0.76,0.33-1.73-0.33-2.32
							l-5.6-4.97c-0.66-0.58-1.65-0.62-2.37-0.08l-10.91,8.24C756.98,412.15,756.91,413.51,757.77,414.27z"/>
						<path class="st17" d="M772.44,429.85l5.37,11.28c0.49,1.04,1.83,1.36,2.77,0.67l11.04-8.06c0.72-0.53,0.97-1.48,0.6-2.28
							l-3.21-6.75c-0.38-0.79-1.28-1.2-2.14-0.97l-13.2,3.53C772.54,427.57,771.95,428.81,772.44,429.85z"/>
					</g>
					<path class="st17" d="M665.15,439c-11.43,31.3,4.86,65.54,36.31,76.32c31.45,10.79,66.34-5.9,77.77-37.19
						c11.43-31.3-4.86-65.54-36.31-76.32C711.47,391.01,676.58,407.7,665.15,439z M763.01,472.56
						c-8.18,22.4-33.15,34.34-55.65,26.62c-22.51-7.72-34.16-32.22-25.98-54.62c8.18-22.4,33.15-34.34,55.65-26.62
						C759.53,425.67,771.19,450.17,763.01,472.56z"/>
				</g>
			</g>
		</g>
		<g>
			<g>
				<path class="st18" d="M657.46,394.77H452.78c-12.18,0-17.21-14.67-8.72-25.45l125.93-159.94c7.4-9.4,20.31-9.4,24.94,0
					l78.75,159.94C678.99,380.09,669.64,394.77,657.46,394.77z"/>
				<linearGradient id="SVGID_12_" gradientUnits="userSpaceOnUse" x1="557.515" y1="399.2705" x2="557.515" y2="197.8254">
					<stop  offset="0" style="stop-color:#FF5F18"/>
					<stop  offset="0.1125" style="stop-color:#FF701E"/>
					<stop  offset="0.3217" style="stop-color:#FF8A26"/>
					<stop  offset="0.5367" style="stop-color:#FF9D2C"/>
					<stop  offset="0.759" style="stop-color:#FFA830"/>
					<stop  offset="1" style="stop-color:#FFAC31"/>
				</linearGradient>
				<path class="st19" d="M656.79,399.27H452.11c-7.2,0-13.12-4.25-15.47-11.09c-2.34-6.84-0.68-15.05,4.33-21.42l125.93-159.93
					c4.44-5.64,10.89-9,17.25-9s11.82,3.36,14.6,9l78.75,159.93c3.14,6.37,2.38,14.58-1.98,21.42
					C671.17,395.02,663.99,399.27,656.79,399.27z M582.83,206.83c-3.66,0-7.22,1.86-9.76,5.09L447.14,371.86
					c-2.88,3.66-3.8,8.19-2.45,12.12c1.35,3.93,4.62,6.28,8.75,6.28h204.68c4.14,0,8.1-2.35,10.6-6.28
					c2.5-3.93,2.93-8.46,1.12-12.12l-78.75-159.93C589.5,208.69,586.49,206.83,582.83,206.83z"/>
			</g>
			<g>
				<path class="st14" d="M557.37,325.65l6.45-84.18c1.22-8.25,8.43-14.93,16.11-14.93l0,0c7.68,0,12.92,6.68,11.7,14.93
					l-18.3,84.17c-1.05,4.41-5,7.78-9.12,7.78l0,0C560.08,333.42,557.13,330.06,557.37,325.65z M547.92,356.75L547.92,356.75
					c1.12-7.62,7.79-13.8,14.89-13.8l0,0c7.1,0,11.94,6.18,10.82,13.8l0,0c-1.12,7.62-7.79,13.8-14.89,13.8l0,0
					C551.64,370.55,546.79,364.37,547.92,356.75z"/>
			</g>
		</g>
		<g>
			<linearGradient id="SVGID_13_" gradientUnits="userSpaceOnUse" x1="458.3368" y1="488.4395" x2="458.3368" y2="464.4191">
				<stop  offset="6.300000e-07" style="stop-color:#FFF641"/>
				<stop  offset="0.2741" style="stop-color:#F6C74A"/>
				<stop  offset="0.6078" style="stop-color:#ED9453"/>
				<stop  offset="0.8603" style="stop-color:#E77459"/>
				<stop  offset="1" style="stop-color:#E5685B"/>
			</linearGradient>
			<path class="st20" d="M464.07,488.44h-2.44c-0.56,0-1.07-0.34-1.27-0.86l-4.31-10.99c-0.49-1.25-2.34-1.1-2.6,0.22l-2.15,10.55
				c-0.13,0.62-0.69,1.07-1.33,1.07h-1.71c-0.86,0-1.5-0.77-1.33-1.6l4.34-21.35c0.13-0.63,0.69-1.08,1.33-1.08h2.46
				c0.56,0,1.07,0.34,1.27,0.85l4.32,10.94c0.49,1.25,2.34,1.09,2.6-0.22l2.14-10.5c0.13-0.62,0.69-1.07,1.33-1.07h1.7
				c0.86,0,1.5,0.77,1.33,1.6l-4.34,21.35C465.28,487.99,464.72,488.44,464.07,488.44z"/>
			<linearGradient id="SVGID_14_" gradientUnits="userSpaceOnUse" x1="483.0095" y1="488.8657" x2="483.0095" y2="464.0094">
				<stop  offset="6.300000e-07" style="stop-color:#FFF641"/>
				<stop  offset="0.2741" style="stop-color:#F6C74A"/>
				<stop  offset="0.6078" style="stop-color:#ED9453"/>
				<stop  offset="0.8603" style="stop-color:#E77459"/>
				<stop  offset="1" style="stop-color:#E5685B"/>
			</linearGradient>
			<path class="st21" d="M471.61,479.02c0-1.42,0.21-2.92,0.62-4.49c0.54-2.11,1.37-3.94,2.48-5.49c1.11-1.55,2.52-2.78,4.21-3.68
				c1.69-0.9,3.62-1.35,5.78-1.35c2.9,0,5.24,0.92,7.02,2.77c1.78,1.85,2.68,4.29,2.68,7.34c0,2.53-0.58,4.99-1.74,7.36
				c-1.16,2.37-2.74,4.19-4.73,5.47c-1.99,1.28-4.24,1.92-6.76,1.92c-2.18,0-4.01-0.51-5.5-1.52c-1.48-1.02-2.53-2.27-3.15-3.78
				C471.92,482.06,471.61,480.55,471.61,479.02z M476.37,478.92c0,1.65,0.49,3.03,1.47,4.15c0.98,1.11,2.27,1.67,3.86,1.67
				c1.3,0,2.55-0.44,3.75-1.32c1.2-0.88,2.19-2.21,2.97-4c0.78-1.79,1.17-3.53,1.17-5.22c0-1.89-0.5-3.37-1.49-4.45
				c-0.99-1.08-2.25-1.61-3.79-1.61c-2.35,0-4.27,1.13-5.74,3.38C477.11,473.76,476.37,476.23,476.37,478.92z"/>
			<linearGradient id="SVGID_15_" gradientUnits="userSpaceOnUse" x1="507.7629" y1="488.4395" x2="507.7629" y2="464.4191">
				<stop  offset="6.300000e-07" style="stop-color:#FFF641"/>
				<stop  offset="0.2741" style="stop-color:#F6C74A"/>
				<stop  offset="0.6078" style="stop-color:#ED9453"/>
				<stop  offset="0.8603" style="stop-color:#E77459"/>
				<stop  offset="1" style="stop-color:#E5685B"/>
			</linearGradient>
			<path class="st22" d="M504.62,488.44h-2.05c-0.86,0-1.5-0.77-1.33-1.6l3.44-16.8c0.17-0.83-0.48-1.6-1.33-1.6h-3.55
				c-0.86,0-1.5-0.77-1.33-1.6l0.27-1.34c0.13-0.63,0.69-1.08,1.33-1.08h15.67c0.86,0,1.5,0.77,1.33,1.6l-0.27,1.34
				c-0.13,0.63-0.69,1.08-1.33,1.08h-4.54c-0.65,0-1.21,0.45-1.33,1.08l-3.64,17.86C505.83,487.99,505.27,488.44,504.62,488.44z"/>
			<linearGradient id="SVGID_16_" gradientUnits="userSpaceOnUse" x1="535.1969" y1="488.4395" x2="535.1969" y2="464.4191">
				<stop  offset="6.300000e-07" style="stop-color:#FFF641"/>
				<stop  offset="0.2741" style="stop-color:#F6C74A"/>
				<stop  offset="0.6078" style="stop-color:#ED9453"/>
				<stop  offset="0.8603" style="stop-color:#E77459"/>
				<stop  offset="1" style="stop-color:#E5685B"/>
			</linearGradient>
			<path class="st23" d="M524.88,486.84l4.36-21.35c0.13-0.62,0.69-1.07,1.33-1.07h13.61c0.86,0,1.51,0.78,1.33,1.6l-0.28,1.34
				c-0.13,0.62-0.69,1.07-1.33,1.07h-9.34c-0.65,0-1.21,0.45-1.33,1.07l-0.63,3.09c-0.17,0.83,0.47,1.6,1.33,1.6h8.02
				c0.86,0,1.5,0.77,1.33,1.6l-0.27,1.34c-0.13,0.63-0.69,1.08-1.33,1.08h-9.11c-0.65,0-1.21,0.45-1.33,1.08l-1.64,8.07
				c-0.13,0.63-0.69,1.08-1.33,1.08h-2.05C525.35,488.44,524.71,487.67,524.88,486.84z"/>
			<linearGradient id="SVGID_17_" gradientUnits="userSpaceOnUse" x1="557.515" y1="488.8657" x2="557.515" y2="464.0094">
				<stop  offset="6.300000e-07" style="stop-color:#FFF641"/>
				<stop  offset="0.2741" style="stop-color:#F6C74A"/>
				<stop  offset="0.6078" style="stop-color:#ED9453"/>
				<stop  offset="0.8603" style="stop-color:#E77459"/>
				<stop  offset="1" style="stop-color:#E5685B"/>
			</linearGradient>
			<path class="st24" d="M546.12,479.02c0-1.42,0.21-2.92,0.62-4.49c0.54-2.11,1.37-3.94,2.48-5.49c1.11-1.55,2.52-2.78,4.21-3.68
				c1.69-0.9,3.62-1.35,5.78-1.35c2.9,0,5.24,0.92,7.02,2.77c1.78,1.85,2.68,4.29,2.68,7.34c0,2.53-0.58,4.99-1.74,7.36
				c-1.16,2.37-2.74,4.19-4.73,5.47c-1.99,1.28-4.24,1.92-6.76,1.92c-2.18,0-4.01-0.51-5.5-1.52c-1.48-1.02-2.53-2.27-3.15-3.78
				C546.43,482.06,546.12,480.55,546.12,479.02z M550.88,478.92c0,1.65,0.49,3.03,1.47,4.15c0.98,1.11,2.27,1.67,3.87,1.67
				c1.3,0,2.55-0.44,3.75-1.32c1.2-0.88,2.19-2.21,2.97-4c0.78-1.79,1.17-3.53,1.17-5.22c0-1.89-0.5-3.37-1.49-4.45
				c-0.99-1.08-2.25-1.61-3.79-1.61c-2.35,0-4.27,1.13-5.74,3.38C551.61,473.76,550.88,476.23,550.88,478.92z"/>
			<linearGradient id="SVGID_18_" gradientUnits="userSpaceOnUse" x1="582.5673" y1="488.8492" x2="582.5673" y2="464.4191">
				<stop  offset="6.300000e-07" style="stop-color:#FFF641"/>
				<stop  offset="0.2741" style="stop-color:#F6C74A"/>
				<stop  offset="0.6078" style="stop-color:#ED9453"/>
				<stop  offset="0.8603" style="stop-color:#E77459"/>
				<stop  offset="1" style="stop-color:#E5685B"/>
			</linearGradient>
			<path class="st25" d="M576.07,464.42h2.03c0.86,0,1.5,0.77,1.33,1.6l-2.33,11.44l-0.65,3.21c-0.04,0.27-0.06,0.53-0.06,0.77
				c0,0.95,0.34,1.73,1.01,2.35c0.68,0.62,1.66,0.93,2.95,0.93c1.16,0,2.12-0.22,2.88-0.67c0.76-0.45,1.34-1.11,1.76-2
				c0.42-0.88,0.84-2.39,1.26-4.51l2.46-12.05c0.13-0.62,0.69-1.07,1.33-1.07h2.03c0.86,0,1.5,0.77,1.33,1.6l-2.34,11.54
				c-0.57,2.76-1.21,4.88-1.95,6.34c-0.74,1.46-1.85,2.65-3.34,3.57c-1.49,0.92-3.38,1.38-5.66,1.38c-2.73,0-4.81-0.69-6.26-2.06
				c-1.45-1.37-2.17-3.13-2.17-5.28c0-0.45,0.04-0.93,0.11-1.46c0.04-0.35,0.23-1.34,0.56-2.98l2.37-11.58
				C574.86,464.87,575.42,464.42,576.07,464.42z"/>
			<linearGradient id="SVGID_19_" gradientUnits="userSpaceOnUse" x1="605.5436" y1="488.4395" x2="605.5436" y2="464.4191">
				<stop  offset="6.300000e-07" style="stop-color:#FFF641"/>
				<stop  offset="0.2741" style="stop-color:#F6C74A"/>
				<stop  offset="0.6078" style="stop-color:#ED9453"/>
				<stop  offset="0.8603" style="stop-color:#E77459"/>
				<stop  offset="1" style="stop-color:#E5685B"/>
			</linearGradient>
			<path class="st26" d="M611.28,488.44h-2.44c-0.56,0-1.07-0.34-1.27-0.86l-4.31-10.99c-0.49-1.25-2.34-1.1-2.6,0.22l-2.15,10.55
				c-0.13,0.62-0.69,1.07-1.33,1.07h-1.71c-0.86,0-1.5-0.77-1.33-1.6l4.34-21.35c0.13-0.63,0.69-1.08,1.33-1.08h2.46
				c0.56,0,1.07,0.34,1.27,0.85l4.32,10.94c0.49,1.25,2.34,1.09,2.6-0.22l2.14-10.5c0.13-0.63,0.69-1.08,1.33-1.08h1.7
				c0.86,0,1.5,0.77,1.33,1.6l-4.34,21.35C612.49,487.99,611.93,488.44,611.28,488.44z"/>
			<linearGradient id="SVGID_20_" gradientUnits="userSpaceOnUse" x1="628.6729" y1="488.4395" x2="628.6729" y2="464.4191">
				<stop  offset="6.300000e-07" style="stop-color:#FFF641"/>
				<stop  offset="0.2741" style="stop-color:#F6C74A"/>
				<stop  offset="0.6078" style="stop-color:#ED9453"/>
				<stop  offset="0.8603" style="stop-color:#E77459"/>
				<stop  offset="1" style="stop-color:#E5685B"/>
			</linearGradient>
			<path class="st27" d="M617.71,486.84l4.36-21.35c0.13-0.62,0.69-1.07,1.33-1.07h5.19c1.76,0,2.88,0.03,3.37,0.08
				c0.97,0.1,1.83,0.3,2.6,0.61c0.76,0.31,1.45,0.73,2.08,1.29c0.62,0.55,1.16,1.22,1.61,1.99c0.45,0.78,0.8,1.67,1.05,2.68
				c0.24,1.01,0.37,2.12,0.37,3.32c0,2.59-0.48,4.89-1.45,6.89c-0.96,2-2.18,3.6-3.63,4.78c-1.12,0.92-2.56,1.6-4.33,2.03
				c-1,0.24-2.54,0.36-4.62,0.36h-6.6C618.18,488.44,617.54,487.67,617.71,486.84z M623.31,482.97c-0.17,0.83,0.48,1.6,1.33,1.6
				h0.78c1.77,0,3.05-0.11,3.84-0.34c0.79-0.22,1.52-0.64,2.18-1.25c0.95-0.88,1.75-2.06,2.4-3.54c0.65-1.47,0.97-3.21,0.97-5.21
				c0-1.7-0.27-2.98-0.81-3.84c-0.54-0.86-1.2-1.43-1.99-1.71c-0.55-0.2-1.54-0.29-2.96-0.29h-1.68c-0.65,0-1.21,0.45-1.33,1.08
				L623.31,482.97z"/>
		</g>
		<g>
			<g>
				<path class="st14" d="M515.86,448.62l0.77-5.53H502.3c-1.27,0-2.18-0.9-2.02-2.02l0.43-3.09c0.08-0.56,0.35-1.11,0.78-1.58
					l19.34-21.01c0.51-0.55,1.27-0.88,2.03-0.88h3.01c1.28,0,2.18,0.91,2.03,2.02l-2.88,20.56h2.39c1.47,0,2.51,1.04,2.33,2.33
					l-0.19,1.34c-0.18,1.29-1.52,2.33-2.99,2.33h-2.39l-0.77,5.53c-0.13,0.9-1.07,1.64-2.1,1.64h-3.81
					C516.47,450.25,515.73,449.52,515.86,448.62z M517.55,436.54l1.37-9.8c0.08-0.55-0.7-0.76-1.11-0.31l-8.9,9.8
					c-0.33,0.37-0.1,0.86,0.4,0.86h7.52C517.19,437.09,517.51,436.84,517.55,436.54z"/>
				<path class="st14" d="M550.11,414.5c3.94,0,6.84,1.23,8.72,3.69c2.23,2.91,2.88,7.75,1.93,14.5
					c-0.94,6.74-2.95,11.58-6.03,14.52c-2.54,2.43-5.78,3.64-9.72,3.64c-3.96,0-6.96-1.33-9.01-3.99
					c-2.05-2.66-2.59-7.41-1.64-14.24c0.94-6.7,2.95-11.53,6.02-14.47C542.94,415.72,546.18,414.5,550.11,414.5z M549.32,420.16
					c-0.94,0-1.82,0.26-2.63,0.79c-0.81,0.53-1.52,1.47-2.12,2.83c-0.78,1.76-1.47,4.74-2.05,8.91c-0.59,4.18-0.75,7.05-0.49,8.61
					c0.26,1.56,0.72,2.6,1.38,3.12c0.66,0.52,1.46,0.78,2.4,0.78c0.94,0,1.82-0.26,2.63-0.79c0.81-0.53,1.52-1.47,2.12-2.83
					c0.78-1.75,1.46-4.71,2.05-8.89c0.59-4.18,0.75-7.05,0.49-8.61c-0.26-1.56-0.72-2.61-1.38-3.13
					C551.06,420.43,550.26,420.16,549.32,420.16z"/>
				<path class="st14" d="M579.02,448.62l0.77-5.53h-14.34c-1.27,0-2.18-0.9-2.02-2.02l0.43-3.09c0.08-0.56,0.35-1.11,0.78-1.58
					l19.34-21.01c0.51-0.55,1.27-0.88,2.03-0.88h3.01c1.28,0,2.18,0.91,2.03,2.02l-2.88,20.56h2.39c1.47,0,2.51,1.04,2.33,2.33
					l-0.19,1.34c-0.18,1.29-1.52,2.33-2.99,2.33h-2.39l-0.77,5.53c-0.13,0.9-1.07,1.64-2.1,1.64h-3.81
					C579.63,450.25,578.89,449.52,579.02,448.62z M580.71,436.54l1.37-9.8c0.08-0.55-0.7-0.76-1.11-0.31l-8.9,9.8
					c-0.33,0.37-0.1,0.86,0.4,0.86H580C580.35,437.09,580.67,436.84,580.71,436.54z"/>
			</g>
		</g>
	</g>
	<g>
		<g>
			<g>
				<g>
					<linearGradient id="SVGID_21_" gradientUnits="userSpaceOnUse" x1="447.1502" y1="346.007" x2="517.2583" y2="346.007">
						<stop  offset="0.847" style="stop-color:#FCB877"/>
						<stop  offset="0.8931" style="stop-color:#FCB575"/>
						<stop  offset="0.9322" style="stop-color:#FAAA71"/>
						<stop  offset="0.9686" style="stop-color:#F89969"/>
						<stop  offset="1" style="stop-color:#F5835F"/>
					</linearGradient>
					<path class="st28" d="M448.58,358.4c0,0,15.49-9.7,28.42-17.99c7.6-4.87,13.38-8.3,16.85-10.29c2.26-1.3,3.62-3.8,3.5-6.46
						c-0.19-4.51-0.79-11.51,0.15-10.33c7.04,8.78,8.51-6.47,11.45-5.05c2.94,1.42,10.58,14.96,7.64,18.8
						c-2.94,3.84-11.96,8.89-11.96,8.89s-38.22,45.28-47.04,47.71C448.78,386.1,444.79,360.78,448.58,358.4z"/>
				</g>
				<g>
					<linearGradient id="SVGID_22_" gradientUnits="userSpaceOnUse" x1="434.9066" y1="381.6175" x2="434.9066" y2="310.3044">
						<stop  offset="0" style="stop-color:#9CFFF9"/>
						<stop  offset="0.151" style="stop-color:#89E4FA"/>
						<stop  offset="0.4081" style="stop-color:#6EBDFB"/>
						<stop  offset="0.644" style="stop-color:#5AA0FC"/>
						<stop  offset="0.849" style="stop-color:#4D8FFD"/>
						<stop  offset="1" style="stop-color:#4989FD"/>
					</linearGradient>
					<path class="st29" d="M414.35,310.3c0,0,18.67,15.96,25.26,23.18c6.6,7.21,17.31,18.79,20.08,20.43
						c2.77,1.65,0.73,24.52-1.54,27.42c-2.27,2.9-37.13-17.43-45.95-35.93C403.39,326.9,414.35,310.3,414.35,310.3z"/>
				</g>
				<g>
					<linearGradient id="SVGID_23_" gradientUnits="userSpaceOnUse" x1="350.507" y1="620.5165" x2="350.507" y2="413.1124">
						<stop  offset="0" style="stop-color:#DBB5FB"/>
						<stop  offset="0.1704" style="stop-color:#BE9AE7"/>
						<stop  offset="0.4004" style="stop-color:#9D7CD0"/>
						<stop  offset="0.6209" style="stop-color:#8566C0"/>
						<stop  offset="0.8258" style="stop-color:#7759B6"/>
						<stop  offset="1" style="stop-color:#7254B3"/>
					</linearGradient>
					<path class="st30" d="M416.73,413.97c0.74,12.39,0.87,17.82-1.87,34.82c-2.67,16.6-30.29,87.55-36.56,95.68
						c-6.27,8.13-80.37,75.06-83.11,76.01c-2.74,0.96-11.37-17.21-11.37-17.21s18.52-37.29,33.57-50.2
						c15.04-12.91,37-31.55,37-31.55s9.02-82.71,17.26-103.26C374.86,410.27,416.73,413.97,416.73,413.97z"/>
				</g>
				<g>
					<linearGradient id="SVGID_24_" gradientUnits="userSpaceOnUse" x1="454.1157" y1="353.3317" x2="517.4235" y2="353.3317">
						<stop  offset="0.157" style="stop-color:#FCB877"/>
						<stop  offset="0.2107" style="stop-color:#FBB475"/>
						<stop  offset="0.7245" style="stop-color:#F79065"/>
						<stop  offset="1" style="stop-color:#F5835F"/>
					</linearGradient>
					<path class="st31" d="M504.64,335.97c0,0,9.02-5.05,11.96-8.89c2.94-3.84-2.9-5.25-3.03-3.49c-0.15,2.09-8.54,5.83-11,9.26
						c-2.46,3.44-33.46,29.73-43.17,37.4c-5.29,4.18-5.76,9.2-5,13.07c0.98,0.51,2.04,0.68,3.19,0.36
						C466.42,381.25,504.64,335.97,504.64,335.97z"/>
				</g>
				<linearGradient id="SVGID_25_" gradientUnits="userSpaceOnUse" x1="397.4026" y1="346.2044" x2="397.4026" y2="285.4083">
					<stop  offset="0.3939" style="stop-color:#FCB877"/>
					<stop  offset="0.5842" style="stop-color:#FAAB71"/>
					<stop  offset="0.9321" style="stop-color:#F68A62"/>
					<stop  offset="1" style="stop-color:#F5835F"/>
				</linearGradient>
				<path class="st32" d="M381.63,285.42c0,0,0.98,19.36-1.2,23.25c-2.19,3.89,11.46,34.76,15.02,37.19
					c3.56,2.43,31.84-7.76,12.41-35.33c-3.39-4.81-2.4-6.27-4.15-15.99C401.96,284.82,381.63,285.42,381.63,285.42z"/>
				<linearGradient id="SVGID_26_" gradientUnits="userSpaceOnUse" x1="393.0902" y1="246.6166" x2="393.0902" y2="298.9558">
					<stop  offset="0.847" style="stop-color:#FCB877"/>
					<stop  offset="0.9252" style="stop-color:#FCB676"/>
					<stop  offset="0.9533" style="stop-color:#FBAF73"/>
					<stop  offset="0.9734" style="stop-color:#F9A46E"/>
					<stop  offset="0.9895" style="stop-color:#F79366"/>
					<stop  offset="1" style="stop-color:#F5835F"/>
				</linearGradient>
				<path class="st33" d="M413.11,262.65c2.05,14.2,1.57,35.04-7.9,36.16c-12.27,1.45-30.71-7.86-32.75-22.07
					c-2.05-14.2,4.85-28.49,14.29-29.83S411.06,248.45,413.11,262.65z"/>
				<path class="st34" d="M317.39,553.07c15.04-12.91,37-31.55,37-31.55s9.02-82.71,17.26-103.26c0.89-2.23,4.8-3.54,9.98-4.29
					c0,0-10.27,102.49-17.16,110.61c-6.89,8.12-23.62,22.84-35.93,34.01c-12.3,11.17-28.38,25.57-33.63,37.66
					c-2.29,5.27-4.69,2.93-6.67-1.38C294.63,583.08,306.86,562.11,317.39,553.07z"/>
				<g>
					<linearGradient id="SVGID_27_" gradientUnits="userSpaceOnUse" x1="302.2941" y1="424.6021" x2="337.3316" y2="424.6021">
						<stop  offset="0.847" style="stop-color:#FCB877"/>
						<stop  offset="0.8931" style="stop-color:#FCB575"/>
						<stop  offset="0.9322" style="stop-color:#FAAA71"/>
						<stop  offset="0.9686" style="stop-color:#F89969"/>
						<stop  offset="1" style="stop-color:#F5835F"/>
					</linearGradient>
					<path class="st35" d="M320.87,375.9c0,0-6.39-6.75-10.14,27.98c-3.76,34.73-1.79,34.14-1.79,34.14s-6.61,11.85-6.65,14.68
						c-0.02,1.85,1.81,9.07,3.09,13.86c0.74,2.76,2.7,4.98,5.29,6l2.99,1.18c0.82,0.32,1.67-0.39,1.52-1.28
						c-0.69-4.17-1.85-13.69,1-17.78c2.38-3.42,5.9-17.52,0.62-18.59c0,0,16.88-36.6,20.46-51.12
						C338.57,379.68,320.87,375.9,320.87,375.9z"/>
				</g>
				<g>
					<path class="st36" d="M451.41,373.67c0,0-15.86-10.17-23.11-16.5c-10.02-8.75-14.7-23.2-14.7-23.2l-3.21,6.69
						c0.47,1.56,1.06,3.15,1.83,4.75c6.26,13.14,25.64,27.19,37.17,33.2L451.41,373.67z"/>
				</g>
				<g>
					
						<linearGradient id="SVGID_28_" gradientUnits="userSpaceOnUse" x1="453.3818" y1="401.124" x2="352.5414" y2="342.9038" gradientTransform="matrix(-0.9043 0 0 1 750.44 0)">
						<stop  offset="0" style="stop-color:#9CFFF9"/>
						<stop  offset="0.1815" style="stop-color:#93F5F9"/>
						<stop  offset="0.4898" style="stop-color:#7CDAFB"/>
						<stop  offset="0.8851" style="stop-color:#55AFFC"/>
						<stop  offset="1" style="stop-color:#49A1FD"/>
					</linearGradient>
					<path class="st37" d="M365.05,314.62l0.65-0.45c4.58-3.18,9.72-5.3,15.09-6.22c0,0,6.69,17.94,19.36,17.11
						c4.71-0.31,11.34-3.71,7.44-14.13c-0.38-1.01-1.05-2.49-1.05-2.49l1.25,0.09c2.27-0.13,4.53,0.41,6.53,1.58l0.51,0.61
						c0,0,7.31,17.37,6.37,32.44c-0.94,15.07-3.75,19.72-4.5,29.02c-0.75,9.3,0.29,50.94,0.29,50.94s-2.36-2.92-18.27-1.5
						c-15.91,1.42-46.4,2.26-46.4,2.26s1.17-8.85,3.08-17.67c1.2-5.52,5.71-20.89,5.52-23.72c-0.19-2.83-0.94-5.46,1.5-9.1
						c2.43-3.64,1.87-22.44,0.94-23.65C362.43,348.53,370.8,335.82,365.05,314.62z"/>
				</g>
				<g>
					<path class="st36" d="M460.33,372.17c0.09-2.09,0.07-4.64-0.05-7.8c-0.08-2.2,0.23-4.27,0.64-6.14
						c-0.17-2.28-0.56-3.92-1.23-4.32c-1.24-0.73-4.06-3.45-7.39-6.87c-2.36,1.95-5.38,8.95-4.53,12.28
						c1.06,4.16-2.17,7.69-3.94,14.87c-0.1,0.41-0.11,0.81-0.08,1.21c5.25,3.22,9.78,5.41,12.33,6.03c1.24-0.29,2.23-0.81,2.95-2.17
						C459.53,377.53,459.98,374.99,460.33,372.17z"/>
				</g>
				<g>
					<path class="st36" d="M360.28,393.39c-0.17-4.45,2.6-6.96,3.64-9.58c1.04-2.62,0-4.11,0.52-5.46c0.52-1.35,0-1.64,2.5-4.82
						c2.5-3.18-2.88-9.19,2-17.88c4.88-8.69,8.14-22.5,3.71-37.46c-0.97-3.28-2.17-5.2-3.44-6.19c-1.2,0.66-2.37,1.38-3.5,2.16
						l-0.65,0.45c5.75,21.2-2.62,33.91-1.68,35.12c0.94,1.21,1.5,20.01-0.94,23.65c-2.43,3.64-1.68,6.27-1.5,9.1
						c0.19,2.83-4.1,18.1-5.36,23.6c-2.2,9.56-3.39,17.86-3.39,17.86s0.46,0.16,2.41,0.78c0.48-5.19,4.38-10.82,5.52-15.29
						C361.49,404.01,360.45,397.84,360.28,393.39z"/>
				</g>
				<g>
					<linearGradient id="SVGID_29_" gradientUnits="userSpaceOnUse" x1="314.6766" y1="350.5058" x2="374.0381" y2="350.5058">
						<stop  offset="0" style="stop-color:#9CFFF9"/>
						<stop  offset="0.1815" style="stop-color:#93F5F9"/>
						<stop  offset="0.4898" style="stop-color:#7CDAFB"/>
						<stop  offset="0.8851" style="stop-color:#55AFFC"/>
						<stop  offset="1" style="stop-color:#49A1FD"/>
					</linearGradient>
					<path class="st38" d="M314.68,382.22c0,0,7.39-23.84,17.35-36.79c9.96-12.95,28.55-35.06,35.28-31.8
						c8.89,4.31,8.81,32.72,0.72,37.32c-8.09,4.59-27.73,23.15-28.53,24.66c-0.8,1.51-2.98,12.09-2.98,12.09L314.68,382.22z"/>
				</g>
				<g>
					<linearGradient id="SVGID_30_" gradientUnits="userSpaceOnUse" x1="302.2942" y1="418.5322" x2="318.934" y2="418.5322">
						<stop  offset="0.157" style="stop-color:#FCB877"/>
						<stop  offset="0.2107" style="stop-color:#FBB475"/>
						<stop  offset="0.7245" style="stop-color:#F79065"/>
						<stop  offset="1" style="stop-color:#F5835F"/>
					</linearGradient>
					<path class="st39" d="M306.18,459.53c-0.11-0.22-0.19-0.46-0.24-0.73c-0.71-3.74,4.07-12.36,6.13-15.48
						c2.22-3.34,1.23-11.58,2.3-35.12c1.07-23.55,7.56-30.2,2.92-31.41c-2.08,2.59-4.65,9.54-6.55,27.1
						c-3.76,34.73-1.79,34.14-1.79,34.14s-6.61,11.85-6.65,14.68C302.27,454.94,307.82,462.69,306.18,459.53z"/>
				</g>
				<g>
					<path class="st40" d="M328.63,366.99c-3.14-0.76-5.78-0.94-7.98-0.77c-2.5,5.89-4.35,11.12-5.28,13.9
						c2.4,0.09,6.01,1.04,10.12,2.07c4.83,1.21,8.13,3.7,10.85,5.47l0.18,0.05c0,0,2.18-10.58,2.98-12.09
						c0.19-0.37,1.5-1.73,3.46-3.65C340.9,370.45,336.68,368.94,328.63,366.99z"/>
				</g>
				<g>
					<path class="st34" d="M301.6,608.06c-1.92-4.15-3.57-8.43-4.88-12.82c-1.01-3.4-3.15-5.88-4.88-6.86
						c-4.82,8.45-8.02,14.89-8.02,14.89s1.26,2.66,2.98,5.89c0.66,1.02,1.39,2.16,2.17,3.44c1.46,2.41,2.61,4.35,3.57,5.94
						c1.08,1.35,2.02,2.15,2.65,1.93c0.54-0.19,3.89-2.97,8.95-7.36C303.38,611.56,302.46,609.93,301.6,608.06z"/>
				</g>
				<g>
					<linearGradient id="SVGID_31_" gradientUnits="userSpaceOnUse" x1="326.8546" y1="392.0886" x2="326.8546" y2="368.8951">
						<stop  offset="0" style="stop-color:#9CFFF9"/>
						<stop  offset="0.1162" style="stop-color:#8CEDFA"/>
						<stop  offset="0.3612" style="stop-color:#6FCCFB"/>
						<stop  offset="0.5961" style="stop-color:#5AB4FC"/>
						<stop  offset="0.8145" style="stop-color:#4DA6FD"/>
						<stop  offset="1" style="stop-color:#49A1FD"/>
					</linearGradient>
					<path class="st41" d="M310.9,373.76c0,0,4.35-7.28,17.69-4.04c13.34,3.24,16.18,5.25,16.06,8.07c-0.12,2.83-2.86,2.59-2.9,5.83
						c-0.04,3.23,0.41,9.68-2.84,8.26c-3.26-1.43-6.99-5.34-13.46-6.96c-6.47-1.62-11.71-3.04-12.91-1.24
						c-1.2,1.81-4.67-2.68-3.08-4.48C311.05,377.4,310.9,373.76,310.9,373.76z"/>
				</g>
				<g>
					<linearGradient id="SVGID_32_" gradientUnits="userSpaceOnUse" x1="456.0125" y1="383.2436" x2="456.0125" y2="348.0306">
						<stop  offset="0" style="stop-color:#9CFFF9"/>
						<stop  offset="0.1162" style="stop-color:#8CEDFA"/>
						<stop  offset="0.3612" style="stop-color:#6FCCFB"/>
						<stop  offset="0.5961" style="stop-color:#5AB4FC"/>
						<stop  offset="0.8145" style="stop-color:#4DA6FD"/>
						<stop  offset="1" style="stop-color:#49A1FD"/>
					</linearGradient>
					<path class="st42" d="M446.78,375.7c1.77-7.18,5-10.71,3.94-14.87c-1.06-4.16,3.9-14.02,6.1-12.68
						c2.2,1.35-0.01,2.61,1.83,2.88c1.84,0.27,3.45-1.75,5.91-0.04c2.46,1.71-1.61,7.62-1.33,14.89
						c0.58,15.19-1.29,16.64-5.07,17.22C452.01,384.06,445.75,379.88,446.78,375.7z"/>
				</g>
				<g>
					<linearGradient id="SVGID_33_" gradientUnits="userSpaceOnUse" x1="278.335" y1="611.7849" x2="299.1238" y2="611.7849">
						<stop  offset="0.847" style="stop-color:#FCB877"/>
						<stop  offset="0.8931" style="stop-color:#FCB575"/>
						<stop  offset="0.9322" style="stop-color:#FAAA71"/>
						<stop  offset="0.9686" style="stop-color:#F89969"/>
						<stop  offset="1" style="stop-color:#F5835F"/>
					</linearGradient>
					<polygon class="st43" points="278.33,609.48 288.7,594.01 299.12,617.42 283.82,629.56 					"/>
				</g>
				<g>
					<linearGradient id="SVGID_34_" gradientUnits="userSpaceOnUse" x1="443.9914" y1="652.2689" x2="468.6955" y2="652.2689">
						<stop  offset="0.847" style="stop-color:#FCB877"/>
						<stop  offset="0.8931" style="stop-color:#FCB575"/>
						<stop  offset="0.9322" style="stop-color:#FAAA71"/>
						<stop  offset="0.9686" style="stop-color:#F89969"/>
						<stop  offset="1" style="stop-color:#F5835F"/>
					</linearGradient>
					<polygon class="st44" points="443.99,645.79 460.49,640.3 468.7,659.23 450.3,664.23 					"/>
				</g>
				<g>
					<path class="st45" d="M299.79,609.06c-1.92-4.15-3.57-8.43-4.88-12.82c-1.29-4.34-4.42-7.18-6.18-7.33
						c-3.53-0.3-7.57,5.1-8.26,7.85c-1.53,6.06,1.2,7.8,6.69,16.84c5.49,9.05,6.75,11.74,8.9,12.7c2.15,0.96,8.24-2.44,7.97-6.73
						C303.8,616.08,301.67,613.12,299.79,609.06z"/>
				</g>
				<g>
					<path class="st46" d="M484.3,299.54l26.36,54.09c-2.78,3.5-3.56,8.14-1.58,12.11c2.85,5.73,10.21,7.87,16.62,4.84
						c6.4-3.02,9.32-10.13,6.52-15.88c-1.63-3.34-4.83-5.48-8.48-6.09l-30.77-63.13c0.02-0.06,0.04-0.13,0.05-0.19l1.58-6.11
						c1.08-4.17,0.24-8.98-5.09-11.01c0,0-5.73-2.37-10.27-2.97c-1.75-0.23-2.96,1.79-1.75,2.94l4.88,4.65
						c1.95,1.86,1.79,4.96-0.36,6.91l-3.03,2.76c-2.15,1.95-5.48,2.03-7.43,0.17l-5.43-5.18c-0.38-0.36-1.07-0.15-1.2,0.36
						l-0.74,2.87c-0.54,2.08,2.54,7.13,7.36,10.64C476.4,294.87,480.7,290.41,484.3,299.54z M518.13,355.42
						c3.21-1.51,6.94-0.41,8.34,2.47c1.4,2.88-0.06,6.44-3.27,7.95s-6.94,0.41-8.34-2.47C513.47,360.49,514.93,356.93,518.13,355.42
						z"/>
					<g>
						<path class="st47" d="M524.26,365.22c0.39-0.11,0.77-0.25,1.14-0.42c3.21-1.51,4.67-5.07,3.27-7.95
							c-1.4-2.88-5.14-3.98-8.34-2.47c-0.38,0.18-0.73,0.38-1.05,0.61c2.9-0.81,5.96,0.35,7.2,2.89
							C527.71,360.42,526.72,363.49,524.26,365.22z"/>
						<path class="st47" d="M471.55,291.34c4.85,3.54,9.15-0.92,12.75,8.21l26.36,54.09c-2.78,3.5-3.56,8.14-1.58,12.11
							c2.85,5.73,10.21,7.87,16.62,4.84c0.37-0.17,0.72-0.36,1.07-0.56c-6.12,2.29-12.8,0.08-15.49-5.32
							c-1.98-3.97-1.21-8.62,1.58-12.11L486.5,298.5c-3.6-9.13-7.9-4.67-12.75-8.21c-4.82-3.51-7.9-8.56-7.36-10.64l0.41-1.57
							l-0.66-0.63c-0.38-0.36-1.07-0.15-1.2,0.36l-0.74,2.87C463.65,282.77,466.73,287.82,471.55,291.34z"/>
						<path class="st47" d="M481.19,281.43l3.03-2.76c2.15-1.95,2.31-5.05,0.36-6.91l-4.88-4.65c-0.57-0.54-0.6-1.28-0.29-1.88
							c-0.05-0.01-0.1-0.01-0.15-0.02c-1.75-0.23-2.96,1.79-1.75,2.94l4.88,4.65c1.95,1.86,1.79,4.96-0.36,6.91l-3.03,2.76
							c-0.12,0.11-0.25,0.21-0.38,0.31C479.54,282.56,480.44,282.11,481.19,281.43z"/>
					</g>
				</g>
				<g>
					<linearGradient id="SVGID_35_" gradientUnits="userSpaceOnUse" x1="498.704" y1="316.7604" x2="519.525" y2="316.7604">
						<stop  offset="0.157" style="stop-color:#FCB877"/>
						<stop  offset="0.2107" style="stop-color:#FBB475"/>
						<stop  offset="0.7245" style="stop-color:#F79065"/>
						<stop  offset="1" style="stop-color:#F5835F"/>
					</linearGradient>
					<path class="st48" d="M508.91,307.47c-1.61-1.6-4.06-1.61-5.78-0.04c-2.89,2.65-6.27,6.95-3.24,10.8
						c4.79,6.08,13.47,9.17,15.65,9.03c1.25-0.08,2.63-2.83,3.59-5.17c0.78-1.91,0.35-4.13-1.03-5.5L508.91,307.47z"/>
					<linearGradient id="SVGID_36_" gradientUnits="userSpaceOnUse" x1="503.3935" y1="314.0039" x2="519.5139" y2="314.0039">
						<stop  offset="0.847" style="stop-color:#FCB877"/>
						<stop  offset="0.8931" style="stop-color:#FCB575"/>
						<stop  offset="0.9322" style="stop-color:#FAAA71"/>
						<stop  offset="0.9686" style="stop-color:#F89969"/>
						<stop  offset="1" style="stop-color:#F5835F"/>
					</linearGradient>
					<path class="st49" d="M513.22,318.4c-1.94-1.21-8.25-5.95-9.83-11.17c1.69-1.34,3.98-1.28,5.51,0.24l9.2,9.12
						c1.3,1.29,1.74,3.32,1.14,5.15C517.14,320.62,514.45,319.17,513.22,318.4z"/>
				</g>
				
					<linearGradient id="SVGID_37_" gradientUnits="userSpaceOnUse" x1="728.6818" y1="653.7577" x2="728.6818" y2="680.6099" gradientTransform="matrix(0.881 -0.1146 0.129 0.9916 -252.041 89.7232)">
					<stop  offset="0" style="stop-color:#72CFFB"/>
					<stop  offset="0.1566" style="stop-color:#65B5E8"/>
					<stop  offset="0.5538" style="stop-color:#4679BB"/>
					<stop  offset="0.8462" style="stop-color:#32539F"/>
					<stop  offset="1" style="stop-color:#2B4594"/>
				</linearGradient>
				<path class="st50" d="M449.08,659.59c0,0,5.98,1.86,10.57,0.33c4.59-1.53,7.72-4.54,7.72-4.54s5.32,6.7,14.44,9.72
					c8.7,2.88,21.2,2.1,21.9,2.32c1.43,0.45,1.8,6.71,1.8,6.71s-46.48,10.68-53.19,9.97C445.6,683.37,449.08,659.59,449.08,659.59z"
					/>
				
					<linearGradient id="SVGID_38_" gradientUnits="userSpaceOnUse" x1="-676.6231" y1="-779.6993" x2="-676.6231" y2="-755.7673" gradientTransform="matrix(0.3149 0.9044 -0.8639 0.4304 -170.7132 1578.0676)">
					<stop  offset="0" style="stop-color:#72CFFB"/>
					<stop  offset="0.1566" style="stop-color:#65B5E8"/>
					<stop  offset="0.5538" style="stop-color:#4679BB"/>
					<stop  offset="0.8462" style="stop-color:#32539F"/>
					<stop  offset="1" style="stop-color:#2B4594"/>
				</linearGradient>
				<path class="st51" d="M279.54,607.68c0,0,0.48,7.9,2.64,11.67c2.16,3.77,6.05,6.71,6.05,6.71s-5.02,5.65-5.49,14.67
					c-0.45,8.61,2.78,19.74,2.75,20.42c-0.05,1.41-4.88,3.32-4.88,3.32s-18.07-39.42-18.91-45.68
					C260.87,612.53,279.54,607.68,279.54,607.68z"/>
				<g>
					<linearGradient id="SVGID_39_" gradientUnits="userSpaceOnUse" x1="385.297" y1="308.4276" x2="385.297" y2="428.3184">
						<stop  offset="0" style="stop-color:#DBB5FB"/>
						<stop  offset="0.2185" style="stop-color:#B296DE"/>
						<stop  offset="0.4362" style="stop-color:#917EC7"/>
						<stop  offset="0.6435" style="stop-color:#796CB6"/>
						<stop  offset="0.8362" style="stop-color:#6B62AC"/>
						<stop  offset="1" style="stop-color:#665EA9"/>
					</linearGradient>
					<path class="st52" d="M408.55,308.5c3.26,7.65,3.32,26.81,2.08,40.97c-11.7-5.78-19.54-1.97-22.88-1.45
						c-0.94-6.91-2.65-14.5-4.35-20.2l-5.14-19.39c-2.52,0.69-3.59,0.8-5.64,1.87c0,0,12.33,51.75,5.64,66.42
						c-3.96,8.68-13.94,8.96-17.9,8.75c-0.81,1.65-2.52,8.95-2.52,8.95c-2.47,8.76-5.16,19.32-5.94,24.83
						c-0.49,3.46-0.32,7.57-0.32,7.57l27.19-1.83c1.61-0.12,3.23-0.14,4.84-0.07l33.56,3.4c0,0,0.53-7.99,0.59-18.18
						c0-8.74,0.45-11.23,0.39-16.75c-0.06-8.87,3.8-59.87-3.81-83.28C411.62,308.63,409.35,308.47,408.55,308.5z"/>
					<g>
						<path class="st53" d="M390.96,354.43l18.07,1.01l-0.73,14.7c-0.25,4.26-1.98,8.07-4.62,10.15l0,0
							c-3.5,2.77-7.87,1.95-10.75-2.01l-0.18-0.25c-1.98-2.73-2.97-6.58-2.7-10.47L390.96,354.43z"/>
						<path class="st54" d="M406.49,355.3l-0.68,13.54c-0.26,4.34-2.02,8.21-4.7,10.33c-1.77,1.4-3.76,1.9-5.67,1.55
							c2.58,1.7,5.65,1.62,8.24-0.43c2.64-2.08,4.37-5.89,4.62-10.15l0.73-14.7L406.49,355.3z"/>
					</g>
				</g>
				<g>
					<g>
						<linearGradient id="SVGID_40_" gradientUnits="userSpaceOnUse" x1="348.2813" y1="534.207" x2="464.6008" y2="534.207">
							<stop  offset="0" style="stop-color:#DBB5FB"/>
							<stop  offset="0.1704" style="stop-color:#BE9AE7"/>
							<stop  offset="0.4004" style="stop-color:#9D7CD0"/>
							<stop  offset="0.6209" style="stop-color:#8566C0"/>
							<stop  offset="0.8258" style="stop-color:#7759B6"/>
							<stop  offset="1" style="stop-color:#7254B3"/>
						</linearGradient>
						<path class="st55" d="M351.59,422.59c0,0-5.29,9.87-2.49,26.67c2.81,16.8,65.65,80.39,67.26,86.13
							c1.6,5.74-3.21,23.43,2.41,44.46c5.62,21.03,25.53,72.42,25.53,72.42l20.3-3.92c0,0-15.75-59.9-17.36-67.07
							c-1.6-7.17-2.65-48.23-5.46-56.36c-2.81-8.13-38.72-81.37-52.97-94.35C374.28,417.34,357.78,410.13,351.59,422.59z"/>
					</g>
					<g>
						<path class="st34" d="M451.87,647.38c0,0-20.95-58.84-25.03-74.92c-4.08-16.08-2.05-38.58-6.97-44.18
							c-4.92-5.61-53.49-67.62-57.95-74.22c-4.45-6.61-4.33-3.32-8.07-17.39c-3.03-11.39,0.27-19.2-2.87-14
							c-2.26,7.21-3.67,15.94-1.82,27.01c2.81,16.8,63.45,80.82,65.06,86.55c1.6,5.74-1.08,22.59,4.54,43.63
							c4.95,18.54,20.42,61.89,25.44,72.18L451.87,647.38z"/>
					</g>
				</g>
				
					<linearGradient id="SVGID_41_" gradientUnits="userSpaceOnUse" x1="339.2571" y1="340.5276" x2="339.2571" y2="308.2811" gradientTransform="matrix(0.9078 -0.2511 0.2339 0.9691 -20.7169 27.4418)">
					<stop  offset="0" style="stop-color:#A3256E"/>
					<stop  offset="0.1321" style="stop-color:#9D2E78"/>
					<stop  offset="0.3564" style="stop-color:#8C4593"/>
					<stop  offset="0.6458" style="stop-color:#706BBE"/>
					<stop  offset="0.9857" style="stop-color:#4B9FFA"/>
					<stop  offset="1" style="stop-color:#49A1FD"/>
				</linearGradient>
				<path class="st56" d="M377.49,252.87c2.19,8.6-2.46,17.26-10.39,19.34c-7.92,2.08-16.12-3.2-18.31-11.8
					c-2.19-8.6,2.46-17.26,10.39-19.34C367.1,238.98,375.3,244.27,377.49,252.87z"/>
				<g>
					<path class="st45" d="M445.25,655.19c-2.56-0.11-4.8-1.77-5.7-4.24c-1.5-4.14-2.78-10.31,3.19-9.9
						c8.94,0.61,16.39-6.09,19.13-6.57c2.74-0.48,9.8,11,6.27,15.3C465.27,653.29,452.75,655.53,445.25,655.19z"/>
				</g>
				
					<linearGradient id="SVGID_42_" gradientUnits="userSpaceOnUse" x1="386.4435" y1="273.7191" x2="365.5566" y2="237.5419" gradientTransform="matrix(0.8491 -0.0745 0.0874 0.9962 45.9008 34.4568)">
					<stop  offset="0" style="stop-color:#A3256E"/>
					<stop  offset="0.1321" style="stop-color:#9D2E78"/>
					<stop  offset="0.3564" style="stop-color:#8C4593"/>
					<stop  offset="0.6458" style="stop-color:#706BBE"/>
					<stop  offset="0.9857" style="stop-color:#4B9FFA"/>
					<stop  offset="1" style="stop-color:#49A1FD"/>
				</linearGradient>
				<path class="st57" d="M381.54,242.28c7.9-2.87,32.87-1.95,31.6,23.43c0,0-3.62-13.18-10.08-14.05c0,0-2.76,6.3-7.54,11.92
					c-2.59,3.04-6.6,5.29-9.37,7.68c-2.05-2.07-4.52-3.22-6.1-1.94c-1.91,1.55-2.09,5.88,0.07,9.05c0.56,0.82,0.8,5.73,0.8,5.73
					s0.67,7.56,0.67,7.56c-4.77-4.08-8.69-6.56-12-13.29C360.7,260.23,367.97,247.2,381.54,242.28z"/>
				
					<linearGradient id="SVGID_43_" gradientUnits="userSpaceOnUse" x1="574.8821" y1="265.5616" x2="574.3854" y2="260.5177" gradientTransform="matrix(-0.8876 0.0779 0.0874 0.9962 883.7192 -38.9358)">
					<stop  offset="0" style="stop-color:#A3256E"/>
					<stop  offset="0.3077" style="stop-color:#854E9E"/>
					<stop  offset="0.7791" style="stop-color:#5A8AE2"/>
					<stop  offset="1" style="stop-color:#49A1FD"/>
				</linearGradient>
				<path class="st58" d="M392.32,270.28c-0.31-0.26,1.21-2.76,3.98-4.08c0.87-0.41,2.59-1.24,3.82-0.54
					c0.8,0.46,1.14,1.33,0.77,1.84c-0.46,0.63-1.8,0.31-3.85,0.61C394.01,268.55,392.62,270.53,392.32,270.28z"/>
				
					<linearGradient id="SVGID_44_" gradientUnits="userSpaceOnUse" x1="554.4294" y1="262.4926" x2="563.2956" y2="261.7994" gradientTransform="matrix(-0.8876 0.0779 0.0874 0.9962 883.7192 -38.9358)">
					<stop  offset="0" style="stop-color:#A3256E"/>
					<stop  offset="0.3077" style="stop-color:#854E9E"/>
					<stop  offset="0.7791" style="stop-color:#5A8AE2"/>
					<stop  offset="1" style="stop-color:#49A1FD"/>
				</linearGradient>
				<path class="st59" d="M414.56,267.06c0.15-0.31-1.88-2.11-4.48-2.53c-0.81-0.13-2.43-0.39-3.13,0.56
					c-0.46,0.62-0.43,1.48,0.04,1.84c0.57,0.43,1.5-0.21,3.18-0.5C412.67,265.99,414.42,267.36,414.56,267.06z"/>
				<path class="st14" d="M396.73,272.78c0.13,1.41,0.93,2.49,1.8,2.41c0.87-0.08,1.47-1.28,1.34-2.68
					c-0.13-1.41-0.93-2.49-1.8-2.41C397.2,270.17,396.6,271.37,396.73,272.78z"/>
				<path class="st14" d="M408.91,271.52c0.13,1.41,0.93,2.49,1.8,2.41c0.87-0.07,1.47-1.28,1.34-2.68
					c-0.13-1.41-0.93-2.49-1.8-2.41C409.38,268.91,408.78,270.11,408.91,271.52z"/>
				
					<linearGradient id="SVGID_45_" gradientUnits="userSpaceOnUse" x1="564.2581" y1="279.4149" x2="564.2581" y2="267.7416" gradientTransform="matrix(-0.8876 0.0779 0.0874 0.9962 883.7192 -38.9358)">
					<stop  offset="4.278340e-03" style="stop-color:#E5685B"/>
					<stop  offset="0.6493" style="stop-color:#FBAB77"/>
				</linearGradient>
				<path class="st60" d="M405.08,271.85c0.12,0,0.07,2.79,1.44,5.22c0.37,0.66,0.85,1.78,1.96,2.81c1.02,0.96,0.93,1.74,0.74,2.29
					c-0.28,0.83-1.5,1.39-2.5,1.13C403.58,282.49,404.82,271.86,405.08,271.85z"/>
				<path class="st61" d="M409.58,286.34c-0.84,0.68-3.01,1.44-5.18,0.73c-2.32-0.76-3.03-2.08-3.03-2.08
					c-0.21,0.25,0.36,2.57,2.17,3.7c1.46,0.91,3.61,1.32,4.95-0.15C409.08,287.91,409.87,286.1,409.58,286.34z"/>
			</g>
		</g>
	</g>
	<g>
		<linearGradient id="SVGID_46_" gradientUnits="userSpaceOnUse" x1="633.9543" y1="513.1434" x2="633.9543" y2="664.6696">
			<stop  offset="0" style="stop-color:#72CFFB"/>
			<stop  offset="0.2297" style="stop-color:#64B4E7"/>
			<stop  offset="0.7206" style="stop-color:#416FB3"/>
			<stop  offset="1" style="stop-color:#2B4594"/>
		</linearGradient>
		<path class="st62" d="M618.87,664.67h-8.54c-4.02,0-6.95-3.86-5.91-7.79l38.07-143.74h21.2l-38.92,146.94
			C624.06,662.79,621.64,664.67,618.87,664.67z"/>
		<linearGradient id="SVGID_47_" gradientUnits="userSpaceOnUse" x1="743.7252" y1="513.1434" x2="743.7252" y2="664.6696">
			<stop  offset="0" style="stop-color:#72CFFB"/>
			<stop  offset="0.2297" style="stop-color:#64B4E7"/>
			<stop  offset="0.7206" style="stop-color:#416FB3"/>
			<stop  offset="1" style="stop-color:#2B4594"/>
		</linearGradient>
		<path class="st63" d="M729.57,664.67h-8.54c-4.02,0-6.95-3.86-5.91-7.79l36.86-139.15c0.72-2.7,3.14-4.58,5.91-4.58h8.54
			c4.02,0,6.95,3.86,5.91,7.79l-36.86,139.15C734.76,662.79,732.33,664.67,729.57,664.67z"/>
		<linearGradient id="SVGID_48_" gradientUnits="userSpaceOnUse" x1="787.8575" y1="664.6696" x2="787.8575" y2="513.1434">
			<stop  offset="0" style="stop-color:#72CFFB"/>
			<stop  offset="0.0438" style="stop-color:#6BC1F1"/>
			<stop  offset="0.1809" style="stop-color:#579BD4"/>
			<stop  offset="0.3238" style="stop-color:#477CBD"/>
			<stop  offset="0.472" style="stop-color:#3B64AB"/>
			<stop  offset="0.6278" style="stop-color:#32539E"/>
			<stop  offset="0.7962" style="stop-color:#2D4896"/>
			<stop  offset="1" style="stop-color:#2B4594"/>
		</linearGradient>
		<path class="st64" d="M802.02,664.67h8.54c4.02,0,6.95-3.86,5.91-7.79l-36.86-139.15c-0.72-2.7-3.14-4.58-5.91-4.58h-8.54
			c-4.02,0-6.95,3.86-5.91,7.79l36.86,139.15C796.83,662.79,799.25,664.67,802.02,664.67z"/>
		<g>
			<rect x="644.1" y="490.92" class="st65" width="13.94" height="31.73"/>
			<g>
				<linearGradient id="SVGID_49_" gradientUnits="userSpaceOnUse" x1="651.0667" y1="468.1387" x2="651.0667" y2="503.171">
					<stop  offset="0" style="stop-color:#FF5F18"/>
					<stop  offset="0.1125" style="stop-color:#FF701E"/>
					<stop  offset="0.3217" style="stop-color:#FF8A26"/>
					<stop  offset="0.5367" style="stop-color:#FF9D2C"/>
					<stop  offset="0.759" style="stop-color:#FFA830"/>
					<stop  offset="1" style="stop-color:#FFAC31"/>
				</linearGradient>
				<ellipse class="st66" cx="651.07" cy="485.65" rx="17.32" ry="17.52"/>
				<linearGradient id="SVGID_50_" gradientUnits="userSpaceOnUse" x1="651.0665" y1="498.6106" x2="651.0665" y2="472.6992">
					<stop  offset="0" style="stop-color:#FF5F18"/>
					<stop  offset="0.1125" style="stop-color:#FF701E"/>
					<stop  offset="0.3217" style="stop-color:#FF8A26"/>
					<stop  offset="0.5367" style="stop-color:#FF9D2C"/>
					<stop  offset="0.759" style="stop-color:#FFA830"/>
					<stop  offset="1" style="stop-color:#FFAC31"/>
				</linearGradient>
				<path class="st67" d="M663.87,485.65c0,7.16-5.73,12.96-12.81,12.96c-7.07,0-12.81-5.8-12.81-12.96
					c0-7.16,5.73-12.96,12.81-12.96C658.14,472.7,663.87,478.5,663.87,485.65z"/>
			</g>
		</g>
		<g>
			<rect x="757.65" y="490.92" class="st65" width="13.94" height="31.73"/>
			<g>
				<linearGradient id="SVGID_51_" gradientUnits="userSpaceOnUse" x1="764.6237" y1="468.1387" x2="764.6237" y2="503.171">
					<stop  offset="0" style="stop-color:#FF5F18"/>
					<stop  offset="0.1125" style="stop-color:#FF701E"/>
					<stop  offset="0.3217" style="stop-color:#FF8A26"/>
					<stop  offset="0.5367" style="stop-color:#FF9D2C"/>
					<stop  offset="0.759" style="stop-color:#FFA830"/>
					<stop  offset="1" style="stop-color:#FFAC31"/>
				</linearGradient>
				<ellipse class="st68" cx="764.62" cy="485.65" rx="17.32" ry="17.52"/>
				<linearGradient id="SVGID_52_" gradientUnits="userSpaceOnUse" x1="764.6237" y1="498.6106" x2="764.6237" y2="472.6992">
					<stop  offset="0" style="stop-color:#FF5F18"/>
					<stop  offset="0.1125" style="stop-color:#FF701E"/>
					<stop  offset="0.3217" style="stop-color:#FF8A26"/>
					<stop  offset="0.5367" style="stop-color:#FF9D2C"/>
					<stop  offset="0.759" style="stop-color:#FFA830"/>
					<stop  offset="1" style="stop-color:#FFAC31"/>
				</linearGradient>
				<path class="st69" d="M777.43,485.65c0,7.16-5.73,12.96-12.81,12.96c-7.07,0-12.81-5.8-12.81-12.96
					c0-7.16,5.73-12.96,12.81-12.96C771.7,472.7,777.43,478.5,777.43,485.65z"/>
			</g>
		</g>
		<g>
			
				<linearGradient id="SVGID_53_" gradientUnits="userSpaceOnUse" x1="331.8441" y1="557.1487" x2="331.8441" y2="512.2532" gradientTransform="matrix(1 0 -0.5359 1 653.5641 0)">
				<stop  offset="7.000000e-07" style="stop-color:#FFDE41"/>
				<stop  offset="0.1589" style="stop-color:#FAC746"/>
				<stop  offset="0.5458" style="stop-color:#EF9451"/>
				<stop  offset="0.8382" style="stop-color:#E87458"/>
				<stop  offset="1" style="stop-color:#E5685B"/>
			</linearGradient>
			<path class="st70" d="M632.43,557.15H753.4c6.82,0,13.83-5.59,15.66-12.5l5.27-19.9c1.83-6.9-2.22-12.5-9.04-12.5H644.32
				c-6.82,0-13.83,5.59-15.66,12.5l-5.27,19.9C621.56,551.55,625.61,557.15,632.43,557.15z"/>
			<path class="st0" d="M753.4,557.15h-5.37l-12.4-44.9h20.51l10.39,37.64C763.45,554.17,758.38,557.15,753.4,557.15z"/>
			<polygon class="st0" points="707.06,557.15 694.66,512.25 715.17,512.25 727.57,557.15 			"/>
			<polygon class="st0" points="666.08,557.15 653.69,512.25 674.19,512.25 686.59,557.15 			"/>
			<path class="st0" d="M634.3,516.18l11.31,40.97h-13.18c-6.82,0-10.87-5.59-9.04-12.5l5.27-19.9
				C629.54,521.43,631.62,518.41,634.3,516.18z"/>
		</g>
		<g>
			
				<linearGradient id="SVGID_54_" gradientUnits="userSpaceOnUse" x1="347.1027" y1="605.7329" x2="347.1027" y2="576.2721" gradientTransform="matrix(1 0 -0.5359 1 653.5641 0)">
				<stop  offset="7.000000e-07" style="stop-color:#FFDE41"/>
				<stop  offset="0.1589" style="stop-color:#FAC746"/>
				<stop  offset="0.5458" style="stop-color:#EF9451"/>
				<stop  offset="0.8382" style="stop-color:#E87458"/>
				<stop  offset="1" style="stop-color:#E5685B"/>
			</linearGradient>
			<path class="st71" d="M617.21,605.73h125.67c5.53,0,11.21-4.53,12.69-10.12l2.44-9.22c1.48-5.59-1.8-10.12-7.33-10.12H625.02
				c-5.53,0-11.21,4.53-12.69,10.12l-2.44,9.22C608.41,601.2,611.69,605.73,617.21,605.73z"/>
			<path class="st0" d="M631.07,605.73l-8.08-29.26c-4.82,0.93-9.36,5.02-10.66,9.92l-2.44,9.22c-1.48,5.59,1.8,10.12,7.33,10.12
				H631.07z"/>
			<polygon class="st0" points="651.54,605.73 672.04,605.73 663.91,576.27 643.4,576.27 			"/>
			<polygon class="st0" points="692.51,605.73 713.02,605.73 704.89,576.27 684.38,576.27 			"/>
			<path class="st0" d="M725.36,576.27l8.13,29.46h9.39c3.6,0,7.26-1.92,9.79-4.81l-6.81-24.65H725.36z"/>
		</g>
	</g>
</g>
</svg>
